<?xml version="1.0" encoding="UTF-8"?>
<!DOCTYPE svg PUBLIC "-//W3C//DTD SVG 1.1//EN" "http://www.w3.org/Graphics/SVG/1.1/DTD/svg11.dtd">
<!-- Creator: CorelDRAW 2018 (64-Bit) -->
<svg xmlns="http://www.w3.org/2000/svg" xml:space="preserve" width="200mm" height="200mm" version="1.1" style="shape-rendering:geometricPrecision; text-rendering:geometricPrecision; image-rendering:optimizeQuality; fill-rule:evenodd; clip-rule:evenodd"
viewBox="0 0 20000 20000"
 xmlns:xlink="http://www.w3.org/1999/xlink">
 <defs>
  <style type="text/css">
   <![CDATA[
    .str2 {stroke:#282829;stroke-width:72.88;stroke-miterlimit:22.9256}
    .str1 {stroke:#282829;stroke-width:72.88;stroke-linecap:round;stroke-linejoin:round;stroke-miterlimit:22.9256}
    .str0 {stroke:#282829;stroke-width:72.88;stroke-linecap:round;stroke-linejoin:round;stroke-miterlimit:10}
    .fil3 {fill:none;fill-rule:nonzero}
    .fil1 {fill:#63B255}
    .fil2 {fill:#292929}
    .fil0 {fill:#FEFEFE;fill-rule:nonzero}
    .fil4 {fill:#373435;fill-rule:nonzero}
    .fil5 {fill:#63B255;fill-rule:nonzero}
   ]]>
  </style>
 </defs>
 <g id="Layer_x0020_1">
  <metadata id="CorelCorpID_0Corel-Layer"/>
  <g id="_973454452944">
   <path class="fil0 str0" d="M1551.25 9121.7c0,127.37 -102.16,230.57 -228.33,230.57 -126.22,0 -228.5,-103.2 -228.5,-230.57 0,-127.18 102.28,-230.37 228.5,-230.37 126.17,0 228.33,103.19 228.33,230.37z"/>
   <path class="fil1" d="M8168.2 4484.43c14.66,0 29.28,0 43.75,0 -14.47,0 -29.09,0 -43.75,0z"/>
   <path class="fil1" d="M8190.25 5806.98c14.47,0 28.97,0 43.59,0 -14.62,0 -29.12,0 -43.59,0z"/>
   <path class="fil2" d="M7229.07 6358.13c14.48,0 28.95,0 43.57,0 -14.62,0 -29.09,0 -43.57,0z"/>
   <polygon class="fil3 str0" points="1551.25,9121.7 9489.42,9121.7 "/>
   <path class="fil3 str1" d="M13859.72 3032.43l4817.52 0 -4817.52 0zm4817.52 0l0 -850.79 0 850.79z"/>
   <path class="fil0 str2" d="M18905.57 1951.07c0,127.35 -102.14,230.56 -228.33,230.56 -126.2,0 -228.48,-103.21 -228.48,-230.56 0,-127.19 102.28,-230.4 228.48,-230.4 126.19,0 228.33,103.21 228.33,230.4z"/>
   <path class="fil4" d="M7807.85 13807.23c134.55,-1671.55 1103.41,-2645.55 1957.74,-3156.06 339.44,-198.3 1003.71,-611.36 1390.51,-768.05 50.15,-20.34 95.33,-40.32 138.27,-59.87 -108.4,-224.68 -128.09,-543.39 -120.49,-852.56 -386.8,166.75 -794.89,775.87 -1164.2,636.59 -345.73,-130.53 -540.25,-438.23 -882.8,-712.01 -52.9,-55.56 -290.84,-218.94 -224.43,-323.29 34.31,-114.03 431.52,346.64 483.13,264.24 102.29,-163.88 -610.28,-1430.71 -484.52,-1498.82 163.03,-76.23 574.85,1126.78 615.12,1106.75 117.25,-22.87 -139.43,-803 11.02,-813.94 127.78,-9.39 202.36,644.04 214.03,740.44 36.34,155.45 105.09,136.7 120.84,11.4 3.31,-166.39 -31.94,-510.5 43.42,-540.52 220.16,-29.38 79,707.76 170.11,719.82 72.23,7.59 65.74,-512.44 259.93,-395.39 48.95,39.56 -176.12,792.18 -57.4,830.46 371.95,-157.35 547.29,-653.72 1013.39,-689.75 610.3,-47.16 343.22,919.98 627.59,938.42 5.34,0.31 248.75,-30.02 254.3,-30.47 14.15,3.32 60.46,1.28 107.47,-0.48 75.4,-46.7 158.49,-96.69 252.24,-151.01 865.5,-503.39 1406.82,-1411.47 1504.69,-2357.24 -43.73,-195.32 -58.04,-392.7 -252.08,-477.17 -240.78,535.44 -599.21,1178.86 -1100.11,487.33 -171.06,-236.12 -305.43,-489.25 -607.1,-526.23 -174.55,-21.6 -703.13,93.68 -768.42,-51.62 -58.55,-100.69 210.4,-60.64 291.13,-71.44 536.34,28.41 -344.97,-712.34 -402.89,-775.04 -34.42,-36.52 -107.96,-83.08 -84.63,-108.29 128.73,-126.59 563.99,446.01 685.33,344.41 17.02,-23.83 -20.27,-65.91 -34.35,-83.37 -109.18,-123.1 -208.97,-256.13 -199.02,-313.3 17.63,-57.19 89.84,-12.41 122.77,28.1 100.73,112.57 293.91,360.91 322.87,305.18 -2.49,-133.05 -119.73,-388.86 -21.43,-390.47 86.58,-1.57 113.33,309.04 207.01,365.41 98.94,57 194.33,-393.33 251.58,-297.44 40.9,59.89 -51.64,199.14 -55.56,339.97 -4.83,164.99 90.85,288.54 154.85,426.54 61.82,132.91 372.31,574.94 561.02,502.86 133.3,-51.12 319.45,-570.68 381.89,-693.1 85.78,-167.24 213.9,-282.32 326.71,-404.92 -349.55,-738.54 -1058.56,-1432.47 -1615.95,-1288.1 -140.98,36.36 -280.76,63.65 -418.45,84.01 3.61,7.43 6.46,15.22 7.25,23.47 4.91,75.61 -128.88,145.96 -298.83,157.52 -169.86,11.44 -311.39,-40.65 -316.66,-116.22 -0.58,-8.1 1.14,-16.68 3.99,-24.94 -821.01,-11.09 -1462.07,-293.46 -1569.07,-614.83 -135.36,-407.13 602.4,-893.99 1348.12,-1146.62 0.79,-68.28 93.91,-161.32 228.19,-221.36 153.58,-68.09 302.46,-67.45 332.75,1.76 10.1,23.04 4.77,50.5 -10.94,79.69 188.63,-30.95 362.04,-39.52 502.73,-17.77 1608.77,246.27 3419.98,1046.61 4182.43,3110.54 16.7,46.51 32.85,93.2 48.29,140.69 240,253.13 561.35,486.99 778.8,547.68 154.71,42.69 530.15,-390.48 584.12,-643.28 12.6,-187.04 -221.06,-693.74 -247.8,-870.33 34.27,-87.48 79.3,-53.52 100.51,-26.68 13.09,1.31 99.29,237.09 172.34,293.93 69.85,58.93 104.78,-603.55 223.13,-589.28 109.06,13.36 -53.62,495.73 46.25,527.18 92.68,20.48 373.91,-701.85 483.61,-654.67 105.78,71.43 -295.19,666.58 -190.14,775.06 56.97,59.67 578.01,-695.66 651.85,-624.38 99.29,96.23 -509.44,736.47 -477.01,891.61 44.1,91.3 512.21,-70.2 532.84,-9.06 59.34,130.84 -508.08,215.49 -728.45,338.55 -316.1,176.42 -592.94,1179.8 -876.05,1230.16 -108.39,19.2 -540.66,-173.74 -886.84,-333.47 113.31,1372.59 -460.29,2940.31 -1939.53,3809.22 -630.56,383.1 -1095.55,684.71 -1703.79,905.84 253.65,250.47 583.48,886.23 622.4,1117.47 71.28,421.36 -785.43,668.34 -1061.12,889.06 117.44,137.49 323.2,258.97 490.65,309.76 145.89,44.75 478.84,45.59 461.44,171 -10.76,78.75 -388.1,-0.64 -505.48,10.53 -28.31,56.84 533.76,257.08 467.98,369.31 -81.02,138.28 -590.75,-238.2 -633.34,-179.75 -14.37,25.25 684.34,750.43 602.83,835.36 -108.54,113.74 -729.38,-722.11 -788.84,-648.77 166.29,310.55 627.73,1126.14 535.46,1245.56 -76.31,99.73 -588.17,-930.39 -808.54,-1259.99 -265.31,25.37 36.84,695.01 -164.59,722.97 -94.03,12.65 -195.76,-949.47 -217.46,-1311.02 -13.07,-216.09 203.17,-444.57 353.46,-603.55 184.58,-195.32 482.12,-304.09 634.48,-482.68 -108.61,-93.27 -261.04,-135.94 -375.14,-215.54 -107.69,-74.76 -210.55,-181.79 -315.81,-255.79 -153.78,-108.25 -343.28,-244.67 -467.9,-416.04 -535.34,142.63 -1238.38,496.07 -1418.34,635.99 -621.85,513.2 -2230.12,2036.18 -949.02,4353.05 1589.05,2233.21 4929.91,1274.45 4995.86,1519.9 124.74,466.27 -6874.13,1631.11 -6416.2,-4048.82z"/>
   <path class="fil5" d="M2866.94 4989.2c-11.94,73.69 -33.49,139.6 -64.65,197.7 -31.01,58.12 -69.74,105.91 -115.97,143.37 -46.27,37.49 -98.2,65.43 -156.13,83.87 -57.9,18.41 -119.43,27.62 -184.92,27.62 -152.79,0 -280.07,-52.09 -382.07,-156.28 -60.25,-60.94 -98.67,-130.19 -115.02,-207.64 -16.36,-77.51 -24.53,-175.95 -24.53,-295.38l0 -46.7 0 -46.66c0,-119.42 8.17,-218.01 24.53,-295.83 16.35,-77.82 54.77,-147.21 115.02,-208.16 51.64,-52.12 108.29,-91.01 169.82,-116.74 61.67,-25.71 132.35,-38.59 212.25,-38.59 68.65,0 131.42,9.39 188.71,28.14 57.26,18.71 108.4,46.66 153.72,83.83 45.34,37.16 83.58,84.47 114.59,141.95 31.16,57.5 52.71,123.69 64.65,198.66l-343.65 0c-12,-45.09 -31.34,-81.16 -58.08,-108.15 -26.76,-27 -66.28,-40.49 -118.51,-40.49 -28.95,0 -54.9,5.41 -77.88,16.19 -22.98,10.82 -41.4,24.78 -55.23,41.93 -11.96,15.22 -21.56,33.51 -28.83,54.76 -7.2,21.29 -12.9,53.68 -16.99,97.21 -4.09,43.5 -6.11,107.48 -6.11,191.95 0,112.46 4.09,191.38 12.26,236.76 8.18,45.42 21.41,80.83 39.67,106.23 30.22,39.41 74.57,59.07 133.11,59.07 50.99,0 90.18,-13.48 117.54,-40.47 27.38,-26.99 47.05,-63.06 59.05,-108.15l343.65 0z"/>
   <path class="fil5" d="M4168.02 5430.32l-353.12 0 -64.19 -206.76 -423.95 0 -67.04 206.76 -354.05 0 500.42 -1389.08 261.53 0 500.4 1389.08zm-506.07 -491.62l0 0 -116.14 -370.59 -123.7 370.59 239.84 0z"/>
   <polygon class="fil5" points="5223.62,5430.32 4307.76,5430.32 4307.76,4041.24 4645.77,4041.24 4645.77,5126.42 5223.62,5126.42 "/>
   <path class="fil5" d="M6544.55 5430.32l-353.13 0 -64.19 -206.76 -423.94 0 -67.04 206.76 -354.1 0 500.44 -1389.08 261.52 0 500.44 1389.08zm-506.1 -491.62l0 0 -116.12 -370.59 -123.7 370.59 239.82 0z"/>
   <polygon class="fil5" points="7758.75,5430.32 7463.23,5430.32 7022.3,4731.96 7022.3,5430.32 6684.28,5430.32 6684.28,4041.24 6979.97,4041.24 7420.74,4739.6 7420.74,4041.24 7758.75,4041.24 "/>
   <path class="fil5" d="M9055.09 4823.43c0,114.34 -10.2,206.74 -30.68,277.22 -20.44,70.53 -56.8,132.14 -108.87,184.83 -37.17,38.14 -76.96,68.94 -119.47,92.44 -42.32,23.52 -86.53,40.01 -132.47,49.55 -45.96,9.52 -95.22,14.29 -148.1,14.29 -152.79,0 -280.12,-52.09 -382.07,-156.28 -60.25,-60.94 -98.67,-130.19 -115.02,-207.64 -16.36,-77.51 -24.55,-175.95 -24.55,-295.38l0 -46.7 0 -46.66c0,-119.42 8.19,-218.01 24.55,-295.83 16.35,-77.82 54.77,-147.21 115.02,-208.16 52.24,-52.76 108.58,-91.8 168.85,-117.19 60.43,-25.44 131.38,-38.14 213.22,-38.14 163.5,0 289.39,44.14 377.84,132.45 88.29,88.29 141.64,197.53 159.87,327.75l-340.86 0c-13.83,-54.63 -35.84,-94.34 -66.07,-119.09 -30.21,-24.78 -73.98,-37.17 -131.23,-37.17 -57.92,0 -102.29,20.32 -133.13,60.97 -11.34,14.62 -20.63,32.56 -27.86,53.85 -7.24,21.27 -12.76,53.97 -16.54,98.12 -3.75,44.14 -5.65,107.19 -5.65,189.1 0,81.95 1.9,145.13 5.65,189.6 3.78,44.5 9.3,77.49 16.54,99.09 7.23,21.61 16.52,39.72 27.86,54.3 30.2,39.41 74.57,59.07 133.13,59.07 66.07,0 116.43,-18.42 151.07,-55.23 34.6,-34.96 51.93,-84.18 51.93,-147.69l0 -20.01 -203 0 0 -284.86 540.04 0 0 193.4z"/>
   <path class="fil5" d="M10292 4735.76l0 46.7c0,77.49 -2.7,144.18 -8.11,200.09 -5.27,55.87 -18.07,109.87 -38.2,161.96 -20.13,52.07 -50.85,99.08 -92.39,140.97 -50.9,51.48 -107.1,90.4 -168.34,116.74 -61.36,26.35 -133.58,39.54 -216.52,39.54 -56.02,0 -106.37,-5.86 -151.36,-17.63 -45.03,-11.75 -86.58,-29.07 -124.48,-51.93 -38.1,-22.87 -74.13,-51.74 -108.13,-86.72 -60.29,-60.94 -98.65,-130.19 -115.03,-207.64 -16.39,-77.51 -24.57,-175.95 -24.57,-295.38l0 -46.7 0 -46.66c0,-119.42 8.18,-218.01 24.57,-295.83 16.38,-77.82 54.74,-147.21 115.03,-208.16 52.24,-52.76 108.73,-91.8 169.32,-117.19 60.75,-25.44 132.35,-38.14 214.65,-38.14 82.94,0 154.98,12.88 216.05,38.59 60.93,25.73 117.25,64.62 168.81,116.74 41.54,41.89 72.26,89.09 92.39,141.47 20.13,52.38 32.93,106.56 38.2,162.43 5.41,55.91 8.11,122.6 8.11,200.09l0 46.66zm-338.03 0l0 0c0,-118.12 -3.94,-198.77 -11.81,-241.98 -7.86,-43.19 -20.62,-76.23 -38.22,-99.09 -12.59,-17.79 -31.01,-32.41 -55.23,-43.81 -24.26,-11.42 -51.16,-17.16 -80.75,-17.16 -28.94,0 -55.08,5.56 -78.37,16.69 -23.27,11.1 -42.14,25.85 -56.64,44.28 -11.33,14.62 -20.62,32.56 -27.87,53.85 -7.23,21.27 -12.74,53.97 -16.5,98.12 -3.77,44.14 -5.65,107.19 -5.65,189.1 0,81.31 1.88,144.03 5.65,188.18 3.76,44.14 9.27,76.72 16.5,97.66 7.25,20.95 16.54,38.73 27.87,53.35 32.09,41.93 77.12,62.87 135.01,62.87 58.56,0 103.86,-20.94 135.98,-62.87 17.6,-24.76 30.36,-57.94 38.22,-99.56 7.87,-41.6 11.81,-121.49 11.81,-239.63z"/>
   <polygon class="fil4" points="2903.75,7056.33 2565.74,7056.33 2565.74,6505.68 2206.03,6505.68 2206.03,7056.33 1868,7056.33 1868,5667.25 2206.03,5667.25 2206.03,6201.73 2565.74,6201.73 2565.74,5667.25 2903.75,5667.25 "/>
   <polygon class="fil4" points="4067.95,6872.45 3965.99,6872.45 3965.99,7056.33 3664.8,7056.33 3664.8,6872.45 3093.58,6872.45 3093.58,6568.55 3550.68,5667.25 3898.17,5667.25 3441.97,6568.55 3664.8,6568.55 3664.8,6384.64 3965.99,6384.64 3965.99,6568.55 4067.95,6568.55 "/>
   <path class="fil4" d="M5257.6 6615.21c-11.93,73.69 -33.49,139.59 -64.64,197.71 -31.01,58.1 -69.75,105.92 -115.98,143.36 -46.27,37.49 -98.19,65.45 -156.13,83.86 -57.89,18.42 -119.44,27.63 -184.91,27.63 -152.79,0 -280.08,-52.09 -382.07,-156.26 -60.25,-60.97 -98.68,-130.22 -115.03,-207.71 -16.35,-77.46 -24.53,-175.91 -24.53,-295.33l0 -46.7 0 -46.66c0,-119.43 8.18,-218.02 24.53,-295.83 16.35,-77.82 54.78,-147.22 115.03,-208.17 51.63,-52.11 108.29,-91.01 169.82,-116.73 61.67,-25.71 132.32,-38.59 212.25,-38.59 68.65,0 131.42,9.39 188.71,28.1 57.25,18.75 108.4,46.7 153.72,83.87 45.34,37.16 83.58,84.46 114.59,141.94 31.15,57.51 52.71,123.7 64.64,198.67l-343.64 0c-12,-45.09 -31.35,-81.17 -58.08,-108.15 -26.76,-27.01 -66.28,-40.47 -118.52,-40.47 -28.94,0 -54.92,5.39 -77.88,16.17 -22.98,10.82 -41.42,24.79 -55.23,41.93 -11.95,15.22 -21.55,33.51 -28.82,54.78 -7.21,21.26 -12.91,53.66 -16.99,97.2 -4.09,43.49 -6.12,107.47 -6.12,191.94 0,112.42 4.09,191.35 12.27,236.76 8.17,45.42 21.41,80.85 39.66,106.22 30.23,39.42 74.58,59.08 133.11,59.08 51,0 90.19,-13.47 117.54,-40.47 27.4,-26.99 47.06,-63.06 59.06,-108.15l343.64 0z"/>
   <polygon class="fil4" points="6597.4,7056.33 6203.69,7056.33 5886.45,6486.6 5770.33,6620.93 5770.33,7056.33 5434.15,7056.33 5434.15,5667.25 5770.33,5667.25 5770.33,6158.87 6168.75,5667.25 6582.31,5667.25 6112.12,6229.36 "/>
   <polygon class="fil4" points="7672.82,7056.33 6737.12,7056.33 6737.12,5667.25 7672.82,5667.25 7672.82,5971.15 7075.17,5971.15 7075.17,6203.65 7585.96,6203.65 7585.96,6507.56 7075.17,6507.56 7075.17,6752.43 7672.82,6752.43 "/>
   <path class="fil4" d="M9000.37 7056.33l-390.9 0 -244.24 -517.33 -114.55 0 0 517.33 -338.05 0 0 -1389.08 545.29 0c98.67,0 183.3,20.81 253.64,62.39 70.53,41.61 124.03,96.38 160.84,164.33 36.84,67.97 55.23,141.35 55.23,220.08 0,87.02 -21.86,161.52 -65.45,223.44 -43.58,61.94 -96.48,108.48 -158.61,139.59l296.8 579.25zm-410.75 -941.77l0 0c0,-24.61 -5.8,-47.8 -17.46,-69.39 -11.81,-21.45 -28.81,-38.78 -51.15,-51.62 -22.52,-13.01 -48.47,-19.51 -78.21,-19.51l-192.12 0 0 280.07 192.12 0c29.74,0 55.69,-6.5 78.21,-19.53 22.34,-12.84 39.34,-30.02 51.15,-51.28 11.66,-21.13 17.46,-44.13 17.46,-68.74z"/>
   <path class="fil5" d="M2866.94 8241.22c-11.94,73.68 -33.49,139.59 -64.65,197.71 -31.01,58.1 -69.74,105.92 -115.97,143.35 -46.27,37.5 -98.2,65.45 -156.13,83.87 -57.9,18.42 -119.43,27.65 -184.92,27.65 -152.79,0 -280.07,-52.12 -382.07,-156.28 -60.25,-60.97 -98.67,-130.22 -115.02,-207.71 -16.36,-77.47 -24.53,-175.91 -24.53,-295.33l0 -46.71 0 -46.66c0,-119.42 8.17,-218.01 24.53,-295.83 16.35,-77.81 54.77,-147.19 115.02,-208.16 51.64,-52.11 108.29,-91.01 169.82,-116.72 61.67,-25.72 132.35,-38.58 212.25,-38.58 68.65,0 131.42,9.39 188.71,28.1 57.26,18.72 108.4,46.68 153.72,83.84 45.34,37.17 83.58,84.47 114.59,141.95 31.16,57.5 52.71,123.7 64.65,198.67l-343.65 0c-12,-45.1 -31.34,-81.17 -58.08,-108.15 -26.76,-26.99 -66.28,-40.47 -118.51,-40.47 -28.95,0 -54.9,5.37 -77.88,16.17 -22.98,10.81 -41.4,24.79 -55.23,41.93 -11.96,15.22 -21.56,33.51 -28.83,54.78 -7.2,21.26 -12.9,53.66 -16.99,97.2 -4.09,43.48 -6.11,107.47 -6.11,191.93 0,112.43 4.09,191.36 12.26,236.76 8.18,45.43 21.41,80.86 39.67,106.23 30.22,39.42 74.57,59.09 133.11,59.09 50.99,0 90.18,-13.48 117.54,-40.49 27.38,-26.98 47.05,-63.05 59.05,-108.14l343.65 0z"/>
   <polygon class="fil5" points="3961.26,8682.34 3045.41,8682.34 3045.41,7293.25 3383.44,7293.25 3383.44,8378.44 3961.26,8378.44 "/>
   <path class="fil5" d="M5180.18 8194.55c0,73.01 -13.51,140.67 -40.57,202.9 -27.07,62.27 -64.84,115.62 -113.31,160.08 -48.48,44.47 -104.5,78.29 -168.09,101.48 -63.55,23.18 -130.9,34.79 -202.03,34.79 -93.8,0 -180.83,-20.67 -261.06,-61.96 -80.28,-41.26 -143.54,-99.87 -189.79,-175.77 -46.27,-75.9 -69.41,-163.07 -69.41,-261.52l0 -901.3 338.01 0 0 893.66c0,63.51 16.23,113.23 48.81,149.14 32.39,35.88 77.09,53.8 133.89,53.8 36.67,0 69.11,-7.93 97.41,-23.82 28.5,-15.88 50.22,-39.07 65.48,-69.54 15.11,-30.48 22.65,-67 22.65,-109.58l0 -893.66 338.01 0 0 901.3z"/>
   <path class="fil5" d="M6464.27 8272.99c0,65.25 -10.72,123.37 -32.08,174.2 -21.42,50.81 -51.31,93.67 -89.55,128.44 -38.4,34.94 -84.36,61.47 -137.72,79.58 -53.47,18.1 -110.13,27.13 -169.77,27.13l-599.08 0 0 -1389.09 570.77 0c92.99,0 172.63,16.67 238.53,50.01 66.11,33.37 115.83,80.52 149.51,141.16 33.69,60.68 50.5,131.03 50.5,211.2 0,67.31 -16.35,124.01 -49.08,170.07 -32.74,46.19 -66.71,80.98 -101.95,104.47 45.3,27.32 84.96,63.37 118.96,107.99 33.97,44.78 50.96,109.71 50.96,194.84zm-357.83 -560.07l0 0c0,-30.97 -9.6,-57.46 -28.8,-79.69 -19.21,-22.1 -50.22,-33.18 -93,-33.18l-210.55 0 0 225.77 210.55 0c41.54,0 72.23,-11.09 92.05,-33.18 19.84,-22.05 29.75,-48.73 29.75,-79.72zm19.82 540.21l0 0c0,-33.51 -9.75,-61.92 -29.28,-85.44 -19.51,-23.31 -51,-35.1 -94.42,-35.1l-228.47 0 0 242.95 228.47 0c42.83,0 74.13,-12.05 93.97,-36.02 19.82,-23.98 29.73,-52.88 29.73,-86.39z"/>
   <polygon class="fil5" points="7634.13,8682.34 6698.43,8682.34 6698.43,7293.25 7634.13,7293.25 7634.13,7597.16 7036.44,7597.16 7036.44,7829.66 7547.24,7829.66 7547.24,8133.56 7036.44,8133.56 7036.44,8378.44 7634.13,8378.44 "/>
   <g>
    <path class="fil5" d="M2171.36 10239.78l-120.94 0 -226.77 684.29 120.94 0 226.77 -684.29zm342.94 0l-120.94 0 -226.77 684.29 120.94 0 226.77 -684.29z"/>
    <path class="fil4" d="M3049.8 10815.06l-88.32 -88.32c-16.71,16.71 -31.03,25.46 -52.52,25.46 -17.5,0 -29.44,-5.57 -40.58,-16.71 -15.12,-15.92 -21.48,-43.76 -21.48,-84.34 0,-40.58 6.36,-68.43 21.48,-84.35 11.14,-11.13 23.08,-16.7 40.58,-16.7 21.49,0 35.81,8.75 52.52,25.46l88.32 -88.33c-35.01,-35 -81.16,-54.9 -140.84,-54.9 -74,0 -192.55,31.83 -192.55,218.82 0,186.98 118.55,218.81 192.55,218.81 59.68,0 105.83,-19.89 140.84,-54.9zm395.45 50.13l0 -277.7c0,-104.23 -66.04,-155.16 -188.58,-155.16 -72.41,0 -112.19,13.53 -155.95,57.29l81.16 81.16c20.69,-20.68 35.01,-28.64 68.43,-28.64 45.36,0 64.45,14.32 64.45,53.31l0 11.14 -86.73 0c-101.85,0 -145.61,59.68 -145.61,124.13 0,39.78 12.73,75.59 37.39,100.25 23.88,23.87 59.69,38.19 102.65,38.19 45.36,0 69.22,-12.73 95.48,-38.98l0 35.01 127.31 0zm-130.49 -160.73c0,20.69 -3.18,34.21 -12.73,42.96 -14.32,13.53 -26.26,15.92 -51.72,15.92 -28.65,0 -42.97,-16.71 -42.97,-35.8 0,-19.9 15.92,-34.22 41.38,-34.22l66.04 0 0 11.14zm420.12 160.73l0 -109.81 -45.35 0c-17.51,0 -26.26,-9.41 -26.26,-26.12l0 -429.8 -130.49 0 0 439.34c0,58.76 38.19,126.39 132.88,126.39l69.22 0zm408.19 0l0 -277.7c0,-104.23 -66.04,-155.16 -188.58,-155.16 -72.41,0 -112.19,13.53 -155.96,57.29l81.17 81.16c20.69,-20.68 35.01,-28.64 68.42,-28.64 45.36,0 64.45,14.32 64.45,53.31l0 11.14 -86.72 0c-101.85,0 -145.62,59.68 -145.62,124.13 0,39.78 12.74,75.59 37.4,100.25 23.87,23.87 59.68,38.19 102.65,38.19 45.35,0 69.22,-12.73 95.48,-38.98l0 35.01 127.31 0zm-130.5 -160.73c0,20.69 -3.18,34.21 -12.73,42.96 -14.32,13.53 -26.25,15.92 -51.72,15.92 -28.64,0 -42.96,-16.71 -42.96,-35.8 0,-19.9 15.91,-34.22 41.38,-34.22l66.03 0 0 11.14zm588.02 160.73l0 -273.72c0,-45.35 -6.37,-85.93 -42.97,-122.54 -23.07,-23.07 -55.7,-36.6 -96.28,-36.6 -34.21,0 -73.2,13.53 -99.46,39.79l0 -35.01 -127.31 0 0 428.08 130.49 0 0 -256.21c0,-49.34 35.02,-58.88 52.52,-58.88 17.5,0 52.52,9.54 52.52,58.88l0 256.21 130.49 0zm442.4 -31.03l0 -397.05 -126.51 0 0 35.01c-26.26,-26.26 -51.72,-39.79 -95.49,-39.79 -41.37,0 -76.38,13.53 -101.05,38.2 -38.99,38.98 -39.78,86.73 -39.78,164.7 0,77.98 0.79,125.72 39.78,164.71 24.67,24.67 58.88,38.19 100.26,38.19 39.78,0 68.43,-11.93 92.3,-35.8l0 31.03c0,27.85 -14.32,65.25 -69.23,65.25 -29.44,0 -53.31,-7.17 -73.2,-27.06l-81.16 81.16c43.76,43.77 93.89,55.7 160.73,55.7 116.96,0 193.35,-73.2 193.35,-174.25zm-130.49 -198.93c0,43.77 -3.19,85.14 -50.93,85.14 -47.74,0 -50.92,-41.37 -50.92,-85.14 0,-43.76 3.18,-85.13 50.92,-85.13 47.74,0 50.93,41.37 50.93,85.13zm583.23 15.92c0,-83.55 -11.13,-124.92 -46.94,-163.92 -25.46,-27.05 -68.43,-54.9 -137.65,-54.9 -69.23,0 -112.2,27.85 -137.66,54.9 -35.81,39 -46.94,80.37 -46.94,163.92 0,84.34 11.13,124.92 46.94,163.91 25.46,27.05 68.43,54.9 137.66,54.9 69.22,0 112.19,-27.85 137.65,-54.9 35.81,-38.99 46.94,-79.57 46.94,-163.91zm-130.49 0c0,42.17 -2.38,72.4 -19.1,89.11 -7.95,7.96 -19.09,11.94 -35,11.94 -15.92,0 -27.06,-3.98 -35.02,-11.94 -16.7,-16.71 -19.09,-46.94 -19.09,-89.11 0,-42.17 2.39,-72.41 19.09,-89.12 7.96,-7.96 19.1,-11.93 35.02,-11.93 15.91,0 27.05,3.97 35,11.93 16.72,16.71 19.1,46.95 19.1,89.12zm353.28 214.04l0 -143.23 -143.22 0 0 143.23 143.22 0zm408.99 -50.13l-88.32 -88.32c-16.71,16.71 -31.03,25.46 -52.52,25.46 -17.5,0 -29.44,-5.57 -40.57,-16.71 -15.12,-15.92 -21.49,-43.76 -21.49,-84.34 0,-40.58 6.37,-68.43 21.49,-84.35 11.13,-11.13 23.07,-16.7 40.57,-16.7 21.49,0 35.81,8.75 52.52,25.46l88.32 -88.33c-35.01,-35 -81.16,-54.9 -140.84,-54.9 -73.99,0 -192.55,31.83 -192.55,218.82 0,186.98 118.56,218.81 192.55,218.81 59.68,0 105.83,-19.89 140.84,-54.9zm261.78 50.13l0 -109.81 -45.35 0c-17.51,0 -26.26,-9.41 -26.26,-26.12l0 -429.8 -130.49 0 0 439.34c0,58.76 38.19,126.39 132.88,126.39l69.22 0zm435.25 0l0 -428.08 -130.5 0 0 256.21c0,49.33 -35.01,58.88 -52.51,58.88 -17.51,0 -52.52,-9.55 -52.52,-58.88l0 -256.21 -130.49 0 0 273.71c0,45.36 6.37,85.94 42.97,122.54 23.07,23.07 55.69,36.6 96.27,36.6 34.22,0 73.21,-13.53 99.47,-39.78l0 35.01 127.31 0zm467.86 -214.04c0,-62.86 2.39,-137.65 -39.78,-179.83 -24.67,-24.66 -62.07,-38.99 -103.44,-38.99 -42.18,0 -71.62,11.94 -95.49,35.81l0 -168.68 -130.49 0 0 565.73 126.51 0 0 -35.01c26.26,26.25 54.11,39.78 98.67,39.78 41.37,0 79.57,-14.32 104.24,-38.99 42.17,-42.17 39.78,-116.97 39.78,-179.82zm-130.49 0c0,62.06 -5.57,101.05 -54.11,101.05 -48.54,0 -54.11,-38.99 -54.11,-101.05 0,-62.07 5.57,-101.05 54.11,-101.05 48.54,0 54.11,38.98 54.11,101.05z"/>
   </g>
  </g>
 </g>
</svg>
