<svg width="1002" height="657" viewBox="0 0 1002 657" fill="none" xmlns="http://www.w3.org/2000/svg">
<path d="M335 111.5C334 116 330.5 124 324 130.5C323.075 130.5 315 126.075 315 120C315 113.925 319.925 109 326 109C332.075 109 334 110 335 111.5Z" fill="#FFC000"/>
<path d="M335 111.5C334 116 330.5 124 324 130.5C323.075 130.5 315 126.075 315 120C315 113.925 319.925 109 326 109C332.075 109 334 110 335 111.5Z" fill="#FFC000"/>
<path d="M335 111.5C334 116 330.5 124 324 130.5C323.075 130.5 315 126.075 315 120C315 113.925 319.925 109 326 109C332.075 109 334 110 335 111.5Z" fill="#FFC000"/>
<circle cx="297" cy="127" r="11" fill="#FFC000"/>
<path d="M277 135C276.5 139.5 276 142.5 274 143.5C270.5 142.5 259 137.5 255.5 132C255.5 125.925 259.925 124 266 124C272.075 124 277 128.925 277 135Z" fill="#FFC000"/>
<circle cx="281" cy="67" r="11" fill="#FFC000"/>
<circle cx="320" cy="90" r="11" fill="#FFC000"/>
<path d="M437.585 95.6857C436.906 98.72 434.528 104.114 430.113 108.497C429.485 108.497 424 105.514 424 101.417C424 97.3208 427.345 94 431.472 94C435.598 94 436.906 94.6743 437.585 95.6857Z" fill="#FFC000"/>
<ellipse cx="411.472" cy="106.417" rx="7.4717" ry="7.41714" fill="#FFC000"/>
<path d="M397.604 111.417C397.264 114.451 396.925 116.474 395.566 117.149C393.189 116.474 385.377 113.103 383 109.394C383 105.298 386.006 104 390.132 104C394.259 104 397.604 107.321 397.604 111.417Z" fill="#FFC000"/>
<ellipse cx="400.321" cy="65.4171" rx="7.4717" ry="7.41714" fill="#FFC000"/>
<ellipse cx="426.812" cy="80.9259" rx="7.4717" ry="7.41714" fill="#FFC000"/>
<path d="M214.5 175.5C213.5 179 211 183.5 207 188C206.361 187.997 201.017 184.796 201.039 180.599C201.062 176.402 204.484 173.018 208.684 173.041C212.883 173.063 213.814 174.46 214.5 175.5Z" fill="#FFC000"/>
<ellipse cx="188.716" cy="185.712" rx="7.52852" ry="7.52391" transform="rotate(1.45424 188.716 185.712)" fill="#FFC000"/>
<path d="M174.754 190.523C174.428 193.603 174.096 195.656 172.731 196.348C170.332 195.676 162.444 192.297 160.029 188.548C160.007 184.393 163.028 183.06 167.186 183.039C171.344 183.017 174.732 186.368 174.754 190.523Z" fill="#FFC000"/>
<ellipse cx="177.717" cy="143.712" rx="7.52852" ry="7.52391" transform="rotate(1.45424 177.717 143.712)" fill="#FFC000"/>
<ellipse cx="204.717" cy="159.713" rx="7.52852" ry="7.52391" transform="rotate(1.45424 204.717 159.713)" fill="#FFC000"/>
<path fill-rule="evenodd" clip-rule="evenodd" d="M336.064 0.00182505C286.5 -0.2117 245.938 18.3086 245.938 18.3086C113.644 82.0365 117.691 171.516 134.419 223.183L103.797 232.821L112.185 244.982C112.185 244.982 65.7853 285.371 94.223 302.728C94.223 302.728 73.4398 324.682 112.761 348.763L116.154 341.79C116.154 341.79 74.3949 318.347 111.65 291.219L97.7772 291.361C97.7772 291.361 88.9271 274.104 122.432 249.26L114.961 237.298L136.465 229.172C137.447 231.889 138.442 234.475 139.451 236.927L133.528 261.799L123.805 258.689C123.805 258.689 105.193 286.056 118.878 316.836L111.358 319.669C111.358 319.669 116.884 340.839 138.441 363.473L141.074 351.911L123.427 322.604L130.947 319.77C130.947 319.77 115.793 285.025 129.997 267.833L138.807 271.621L144.019 247.194C149.248 258.039 153.596 264.427 153.596 264.427L154.438 265.449L166.088 258.015C178.675 249.392 192.492 241.344 207.119 233.843L238.665 449.973L416.014 428.6L429.112 190.825L483.727 279.466L420.223 370.139L460.916 372.606L512.706 319.56L570.041 371.988L609.5 370.139L550.931 285.017L616.9 198.663L588.537 184.477L523.803 255.41L465.847 188.175L429.191 189.38L430.77 160.728C471.5 152.125 499.354 148.114 499.354 148.114C499.354 148.114 497.561 167.493 502.246 170.052L511.255 167.462C511.255 167.462 514.251 188.901 512.493 195.744C512.493 195.744 524.526 190.234 513.208 163.169L504.637 165.643C504.637 165.643 502.267 151.135 506.103 146.823L498.523 145.053C497.836 142.444 497.152 139.832 496.424 137.312L510.327 138.053L511.786 142.283C511.786 142.283 506.868 151.959 513.039 158.857C519.211 165.754 520.949 178.743 522.669 191.211C524.48 204.335 528.907 179.644 519.022 156.708L516.066 149.855C514.272 145.692 516.766 137.376 516.766 137.376L514.439 132.076L494.404 130.455C494.404 130.455 500.219 124.679 496.14 121.727C494.836 120.783 492.828 120.121 490.715 119.627C456.558 23.3984 390.829 0.237637 336.064 0.00182505ZM288.909 41.1856C314.258 41.0936 337.439 58.0787 344.141 83.7505C347.91 98.1901 345.78 112.778 339.259 124.975C338.981 125.521 338.863 125.77 338.544 126.256C334.677 133.067 329.418 139.078 323.033 143.832L322.921 143.859C322.929 143.872 322.934 143.883 322.943 143.896C317.263 148.109 310.708 151.338 303.448 153.235C273.035 161.18 241.945 142.956 234.003 112.53C226.061 82.1037 244.277 50.9993 274.689 43.0533C279.441 41.8117 284.208 41.2101 288.902 41.1931L288.909 41.1856ZM405.905 47.0882C423.516 47.0246 439.624 58.8227 444.279 76.6576C449.797 97.7955 437.142 119.406 416.014 124.927C394.886 130.447 373.285 117.787 367.767 96.6487C362.249 75.5105 374.904 53.8999 396.032 48.3795C399.333 47.517 402.644 47.1 405.905 47.0882ZM623.716 97.2064L613.566 430.487L786.232 432.212L787.242 393.533L680.519 381.993L675.622 304.042L790.856 297.709L793.778 263.847L669.962 243.855L690.673 156.484L805.046 160.155L814.216 116.756L623.716 97.2064ZM646.212 110.992L662.303 121.158L652.142 137.256L636.051 127.09L646.212 110.992ZM681.735 113.743L697.826 123.909L687.665 140.007L671.574 129.841L681.735 113.743ZM716.753 117.392L732.841 127.558L722.679 143.653L706.592 133.487L716.753 117.392ZM750.308 118.852L766.399 129.018L756.238 145.116L740.147 134.947L750.308 118.852ZM785.326 121.772L801.417 131.937L791.256 148.032L775.165 137.866L785.326 121.772ZM183.298 125.593C188.999 125.572 194.532 126.81 199.58 129.078C200.38 129.462 200.393 129.459 201.088 129.815C207.825 133.192 213.589 138.447 217.508 145.131C217.512 145.167 217.527 145.201 217.53 145.236C218.769 147.698 218.732 147.762 220.022 150.24C220.665 151.825 221.225 153.463 221.668 155.162C227.186 176.301 214.531 197.911 193.403 203.432C172.275 208.952 150.674 196.292 145.156 175.154C139.639 154.015 152.293 132.405 173.421 126.884C176.722 126.022 180.037 125.605 183.298 125.593H183.298ZM490.158 132.484C490.158 132.484 398.585 155.088 306.411 184.309C245.938 203.48 185.207 225.498 149.908 245.851C147.644 247.173 257.048 163.57 490.158 132.484ZM650.021 145.674L663.646 158.965L650.361 172.597L636.736 159.306L650.021 145.674ZM406.639 168.686L420.081 181.797L406.975 195.242L393.533 182.13L406.639 168.686ZM370.401 182.254L383.84 195.366L370.734 208.81L357.295 195.699L370.401 182.254ZM647.705 182.905L661.327 196.197L648.042 209.828L634.416 196.533L647.705 182.905ZM356.585 183.512L281.711 352.544L253.906 212.613C277.666 203.011 302.269 194.615 326.34 187.311L356.585 183.512ZM455.507 191.061L458.81 205.902L443.98 209.207L440.673 194.366L455.507 191.061ZM599.552 192.412L604.52 206.778L590.157 211.749L585.189 197.379L599.552 192.412ZM407.233 206.134L420.672 219.246L407.566 232.69L394.128 219.579L407.233 206.134ZM383.065 206.658L371.879 371.371L307.99 384.654L383.065 206.658ZM356.035 211L369.473 224.111L356.368 237.556L342.929 224.445L356.035 211ZM474.014 211.284L477.322 226.125L462.488 229.43L459.184 214.593L474.014 211.284ZM583.749 212.332L588.713 226.702L574.354 231.672L569.386 217.303L583.749 212.332ZM644.922 219.156L658.543 232.447L645.258 246.079L631.636 232.788L644.922 219.156ZM566.737 231.171L571.706 245.54L557.343 250.511L552.375 236.141L566.737 231.171ZM230.557 231.403L246.428 241.43L236.405 257.312L220.531 247.28L230.557 231.403ZM493.488 232.398L496.791 247.239L481.961 250.544L478.657 235.707L493.488 232.398ZM343.584 242.62L357.022 255.732L343.917 269.177L330.478 256.065L343.584 242.62ZM402.329 243.332L415.767 256.443L402.662 269.888L389.223 256.776L402.329 243.332ZM549.337 250.701L554.305 265.071L539.943 270.041L534.978 255.672L549.337 250.701ZM508.254 252.936L511.558 267.777L496.724 271.082L493.42 256.241L508.254 252.936ZM644.357 259.022L657.978 272.313L644.693 285.945L631.072 272.65L644.357 259.022ZM680.83 261.942L694.456 275.233L681.17 288.865L667.545 275.57L680.83 261.942ZM718.037 263.401L731.662 276.693L718.373 290.324L704.751 277.029L718.037 263.401ZM757.432 264.131L771.054 277.422L757.768 291.051L744.147 277.759L757.432 264.131ZM233.494 268.81L249.365 278.837L239.338 294.715L223.468 284.687L233.494 268.81ZM529.972 269.454L534.94 283.823L520.578 288.794L515.61 274.424L529.972 269.454ZM330.426 272.927L343.864 286.039L330.759 299.483L317.32 286.372L330.426 272.927ZM401.771 280.499L415.21 293.607L402.104 307.055L388.666 293.944L401.771 280.499ZM511.139 288.573L516.107 302.942L501.745 307.909L496.78 293.543L511.139 288.573ZM541.525 295.205L544.829 310.046L529.998 313.351L526.691 298.51L541.525 295.205ZM643.747 295.774L657.369 309.065L644.084 322.693L630.462 309.402L643.747 295.774ZM316.767 303.945L330.205 317.057L317.1 330.501L303.661 317.39L316.767 303.945ZM243.637 305.382L259.511 315.41L249.484 331.291L233.614 321.26L243.637 305.382ZM492.421 305.581L497.39 319.95L483.027 324.921L478.059 310.551L492.421 305.581ZM558.944 314.717L562.248 329.558L547.414 332.863L544.11 318.022L558.944 314.717ZM400.451 318.909L413.889 332.021L400.784 345.466L387.345 332.354L400.451 318.909ZM473.663 327.335L478.631 341.7L464.269 346.671L459.304 332.302L473.663 327.335ZM643.882 329.831L657.507 343.126L644.218 356.754L630.596 343.463L643.882 329.831ZM305.274 332.691L318.712 345.802L305.607 359.247L292.168 346.136L305.274 332.691ZM575.72 333.765L579.023 348.602L564.193 351.911L560.886 337.07L575.72 333.765ZM246.574 342.789L262.448 352.817L252.425 368.694L236.551 358.667L246.574 342.789ZM455.682 348.03L460.651 362.395L446.288 367.366L441.32 353L455.682 348.03ZM593.708 351.735L597.015 366.576L582.181 369.881L578.878 355.044L593.708 351.735ZM395.546 356.107L408.984 369.218L395.879 382.667L382.44 369.555L395.546 356.107ZM290.907 361.437L304.346 374.548L291.24 387.993L277.802 374.882L290.907 361.437ZM643.29 363.297L656.916 376.588L643.631 390.216L630.005 376.925L643.29 363.297ZM253.487 377.868L269.358 387.896L259.335 403.773L243.465 393.746L253.487 377.868ZM658.573 391.815L674.661 401.981L664.499 418.079L648.412 407.913L658.573 391.815ZM192.502 391.968L0 417.619L7.89026 432.433L200.392 406.783L192.502 391.968ZM385.875 392.522L401.745 402.549L391.722 418.431L375.852 408.4L385.875 392.522ZM693.591 395.464L709.679 405.63L699.517 421.728L683.43 411.563L693.591 395.464ZM727.146 396.924L743.237 407.09L733.076 423.188L716.985 413.022L727.146 396.924ZM346.547 399.102L362.421 409.133L352.394 425.011L336.524 414.984L346.547 399.102ZM762.164 399.843L778.255 410.009L768.094 426.108L752.003 415.942L762.164 399.843ZM305.038 405.345L320.908 415.373L310.885 431.254L295.015 421.227L305.038 405.345ZM262.182 413.112L278.052 423.139L268.03 439.021L252.159 428.99L262.182 413.112ZM809.498 423.731L801.608 438.545L994.11 464.196L1002 449.381L809.498 423.731ZM207.074 428.99L66.4331 454.636L72.1946 469.451L212.835 443.804L207.074 428.99ZM628.097 431.995L403.855 432.553L257.502 487.032L257.562 511.833L769.19 526.344L767.963 486.889L628.097 431.995ZM556.037 454.723L547.126 497.583L512.198 497.673L498.587 462.755L556.037 454.723ZM794.926 460.752L789.165 475.567L929.805 501.214L935.567 486.399L794.926 460.752ZM408.446 465.237L399.523 502.46L366.843 502.543L361.119 465.353L408.446 465.237ZM628.183 466.943L677.788 475.84L658.712 508.58L626.017 500.772L628.183 466.943Z" fill="white"/>
<path fill-rule="evenodd" clip-rule="evenodd" d="M183.234 132.322C177.586 132.335 172.037 133.805 167.12 136.585L171.389 154.813L188.786 150.138L184.629 132.389C184.164 132.356 183.699 132.335 183.234 132.322V132.322ZM177.932 136.888C181.883 136.888 185.086 140.092 185.086 144.045C185.086 147.998 181.883 151.201 177.932 151.201C173.981 151.201 170.775 147.998 170.775 144.045C170.775 140.092 173.981 136.888 177.932 136.888Z" fill="white"/>
<path fill-rule="evenodd" clip-rule="evenodd" d="M187.75 132.674L191.658 149.369L208.959 144.721C203.693 138.136 196.101 133.824 187.75 132.674Z" fill="white"/>
<path fill-rule="evenodd" clip-rule="evenodd" d="M163.893 138.656C156.779 143.84 152.036 151.659 150.726 160.366L167.893 155.753L163.893 138.656Z" fill="white"/>
<path fill-rule="evenodd" clip-rule="evenodd" d="M211.159 147.868L192.482 152.883L196.587 170.43L216.138 165.179C216.119 159.057 214.395 153.063 211.159 147.868ZM204.331 152.427C208.282 152.427 211.484 155.63 211.484 159.583C211.484 163.536 208.282 166.74 204.331 166.74C200.38 166.74 197.178 163.536 197.178 159.583C197.178 155.63 200.38 152.427 204.331 152.427Z" fill="white"/>
<path fill-rule="evenodd" clip-rule="evenodd" d="M189.602 153.66L172.205 158.334L176.311 175.879L193.708 171.204L189.602 153.66Z" fill="white"/>
<path fill-rule="evenodd" clip-rule="evenodd" d="M168.717 159.27L150.375 164.197C150.352 164.546 150.335 164.896 150.323 165.245C150.339 171.014 151.868 176.678 154.76 181.67L172.822 176.818L168.717 159.27Z" fill="white"/>
<path fill-rule="evenodd" clip-rule="evenodd" d="M215.985 168.312L197.271 173.341L201.739 192.433C203.856 190.987 205.796 189.299 207.521 187.403C204.275 186.657 201.972 183.769 201.968 180.437C201.968 176.484 205.171 173.28 209.122 173.28C211.145 173.283 213.072 174.145 214.426 175.65C215.223 173.271 215.747 170.809 215.985 168.312Z" fill="white"/>
<path fill-rule="evenodd" clip-rule="evenodd" d="M194.391 174.11L176.994 178.785L181.51 198.08C182.084 198.123 182.656 198.153 183.231 198.166C188.768 198.154 194.212 196.741 199.06 194.063L194.391 174.11ZM188.54 178.197C192.491 178.197 195.693 181.401 195.693 185.354C195.693 189.307 192.491 192.51 188.54 192.51C184.59 192.508 181.39 189.305 181.39 185.354C181.39 181.402 184.59 178.199 188.54 178.197Z" fill="white"/>
<path fill-rule="evenodd" clip-rule="evenodd" d="M173.505 179.726L156.453 184.309C157.687 186.044 159.086 187.655 160.631 189.12C161.404 185.908 164.274 183.643 167.576 183.639C171.527 183.639 174.73 186.844 174.73 190.796C174.729 192.886 173.813 194.871 172.225 196.229C174.006 196.865 175.839 197.346 177.703 197.667L173.505 179.726Z" fill="white"/>
<path fill-rule="evenodd" clip-rule="evenodd" d="M289.002 49.9996C280.764 50.0192 272.67 52.1617 265.499 56.2151L271.725 82.7904L297.1 75.9747L291.037 50.0979C290.359 50.0501 289.681 50.0185 289.002 49.9995V49.9996ZM281.269 56.6571C287.032 56.657 291.703 61.3279 291.703 67.0908C291.703 72.8537 287.032 77.5246 281.269 77.5244C275.507 77.5246 270.83 72.8537 270.83 67.0908C270.83 61.3279 275.507 56.657 281.269 56.6571Z" fill="white"/>
<path fill-rule="evenodd" clip-rule="evenodd" d="M295.596 50.5142L301.296 74.8532L326.531 68.0777C318.849 58.4771 307.776 52.1904 295.596 50.5142Z" fill="white"/>
<path fill-rule="evenodd" clip-rule="evenodd" d="M260.792 59.2314C250.415 66.7893 243.498 78.1891 241.586 90.8837L266.627 84.158L260.792 59.2314Z" fill="white"/>
<path fill-rule="evenodd" clip-rule="evenodd" d="M329.737 72.6685L302.496 79.9808L308.482 105.563L337 97.9068C336.972 88.9818 334.458 80.243 329.737 72.6685ZM319.778 79.315C325.541 79.3149 330.212 83.9858 330.212 89.7487C330.212 95.5116 325.541 100.182 319.778 100.182C314.015 100.182 309.344 95.5116 309.345 89.7487C309.344 83.9858 314.015 79.3149 319.778 79.315Z" fill="white"/>
<path fill-rule="evenodd" clip-rule="evenodd" d="M298.294 81.1128L272.92 87.9281L278.909 113.507L304.283 106.691L298.294 81.1128Z" fill="white"/>
<path fill-rule="evenodd" clip-rule="evenodd" d="M267.828 89.2856L241.075 96.4694C241.042 96.9784 241.017 97.4879 241 97.9977C241.023 106.409 243.254 114.666 247.472 121.943L273.817 114.869L267.828 89.2856Z" fill="white"/>
<path fill-rule="evenodd" clip-rule="evenodd" d="M336.771 102.466L309.475 109.799L315.991 137.633C319.078 135.526 321.908 133.065 324.424 130.3C319.69 129.213 316.331 125.002 316.325 120.144C316.325 114.381 320.996 109.71 326.759 109.71C329.711 109.715 332.521 110.971 334.496 113.165C335.659 109.697 336.422 106.107 336.771 102.466Z" fill="white"/>
<path fill-rule="evenodd" clip-rule="evenodd" d="M305.279 110.928L279.904 117.743L286.491 145.874C287.328 145.937 288.162 145.98 289.001 146C297.078 145.983 305.018 143.922 312.089 140.019L305.279 110.928ZM296.744 116.887C302.507 116.887 307.178 121.558 307.178 127.32C307.178 133.083 302.507 137.754 296.744 137.754C290.983 137.752 286.316 133.081 286.316 127.32C286.316 121.559 290.983 116.889 296.744 116.887Z" fill="white"/>
<path fill-rule="evenodd" clip-rule="evenodd" d="M274.805 119.107L249.934 125.788C251.733 128.318 253.774 130.667 256.027 132.802C257.155 128.12 261.342 124.818 266.158 124.812C271.921 124.812 276.592 129.484 276.592 135.247C276.59 138.294 275.254 141.187 272.938 143.167C275.536 144.094 278.21 144.795 280.928 145.263L274.805 119.107Z" fill="white"/>
<path fill-rule="evenodd" clip-rule="evenodd" d="M406 54.0001C400.336 54.0133 394.771 55.464 389.841 58.2086L394.122 76.203L411.567 71.588L407.399 54.0666C406.933 54.0342 406.467 54.0128 406 54V54.0001ZM400.683 58.5079C404.646 58.5079 407.857 61.6705 407.857 65.5726C407.857 69.4748 404.646 72.6375 400.683 72.6374C396.721 72.6375 393.506 69.4748 393.506 65.5726C393.506 61.6705 396.721 58.5079 400.683 58.5079Z" fill="white"/>
<path fill-rule="evenodd" clip-rule="evenodd" d="M410.533 54.3496L414.452 70.8298L431.802 66.2421C426.521 59.7414 418.908 55.4846 410.533 54.3496Z" fill="white"/>
<path fill-rule="evenodd" clip-rule="evenodd" d="M386.607 60.251C379.473 65.3684 374.717 73.0873 373.402 81.683L390.619 77.1289L386.607 60.251Z" fill="white"/>
<path fill-rule="evenodd" clip-rule="evenodd" d="M434.006 69.3506L415.277 74.3018L419.393 91.6237L439 86.4397C438.981 80.3965 437.252 74.4794 434.006 69.3506ZM427.159 73.851C431.121 73.8509 434.333 77.0136 434.333 80.9158C434.333 84.8179 431.121 87.9806 427.159 87.9805C423.197 87.9806 419.986 84.8179 419.986 80.9158C419.986 77.0137 423.197 73.851 427.159 73.851Z" fill="white"/>
<path fill-rule="evenodd" clip-rule="evenodd" d="M412.391 75.0654L394.945 79.6802L399.063 96.9997L416.509 92.385L412.391 75.0654Z" fill="white"/>
<path fill-rule="evenodd" clip-rule="evenodd" d="M391.445 80.6011L373.051 85.4652C373.029 85.8099 373.012 86.1549 373 86.5001C373.016 92.1953 374.55 97.7867 377.45 102.714L395.563 97.924L391.445 80.6011Z" fill="white"/>
<path fill-rule="evenodd" clip-rule="evenodd" d="M438.848 89.5259L420.081 94.4912L424.561 113.338C426.684 111.911 428.63 110.244 430.36 108.372C427.104 107.636 424.795 104.785 424.791 101.496C424.791 97.5937 428.003 94.4304 431.965 94.4305C433.994 94.4339 435.926 95.2843 437.284 96.7699C438.084 94.4218 438.608 91.9914 438.848 89.5259Z" fill="white"/>
<path fill-rule="evenodd" clip-rule="evenodd" d="M417.196 95.2529L399.75 99.8679L404.278 118.915C404.854 118.958 405.427 118.987 406.004 119C411.557 118.989 417.017 117.594 421.878 114.951L417.196 95.2529ZM411.328 99.2878C415.29 99.2878 418.502 102.45 418.501 106.353C418.502 110.255 415.29 113.417 411.328 113.417C407.367 113.416 404.158 110.253 404.158 106.353C404.158 102.452 407.367 99.2896 411.328 99.2878Z" fill="white"/>
<path fill-rule="evenodd" clip-rule="evenodd" d="M396.246 100.792L379.146 105.316C380.384 107.029 381.787 108.619 383.336 110.065C384.112 106.895 386.99 104.659 390.301 104.655C394.263 104.655 397.475 107.818 397.475 111.72C397.474 113.784 396.555 115.743 394.963 117.083C396.749 117.711 398.587 118.186 400.456 118.503L396.246 100.792Z" fill="white"/>
<path d="M205.005 517.436L226.846 518.14L238.823 581.931L272.641 584.046L283.914 520.255L304.346 521.312L310.687 657H298.709L280.039 603.782L235.3 607.659L230.016 652.066L212.755 653.123L205.005 517.436Z" fill="white"/>
<path d="M313.08 572.326L317.938 634.005L323.541 633.878L328.024 618.054L347.828 617.68L354.431 635.5L360.282 634.875L356.547 573.694L313.08 572.326ZM338.612 584.909L344.84 606.218L327.653 605.595L332.012 585.284L338.612 584.909Z" fill="white"/>
<path d="M377.53 583.251L381.582 619.728L406.945 619.64L407.121 627.041L371.894 631.358L364.32 570.916L407.033 574L406.857 582.811L377.53 583.251Z" fill="white"/>
<path d="M409.853 568.341L412.842 630.892L420.937 631.515L428.659 608.713L431.773 608.837L439.993 616.064L442.733 631.017L450.206 631.391L455.686 612.7L443.107 598.994L453.444 571.705L445.598 569.836L432.769 591.144H427.414L419.318 568.715L409.853 568.341Z" fill="white"/>
<path d="M464.807 567.573L469.122 632.421L507.608 629.689L506.815 622.641L483.653 622.905L480.571 606.252L505.406 603.521L505.318 596.56L478.986 595.151L481.276 577.617L506.551 576.912L508.577 568.101L464.807 567.573Z" fill="white"/>
<path d="M512.855 565.847L515.594 631.389L524.313 630.891L530.788 611.455L559.683 632.887L564.169 631.389L551.465 604.725L568.154 568.84L512.855 565.847ZM548.476 579.306L538.761 597.748H529.046L526.057 580.302L548.476 579.306Z" fill="white"/>
<path d="M564.417 528.964L574.381 655.812L626.691 641.358L625.943 623.664L587.334 627.153L581.355 558.371L624.449 556.876L625.196 537.437L564.417 528.964Z" fill="white"/>
<path d="M636.186 557.788L635.481 622.812L667.186 621.05L667.538 613.12L645.521 611.006L650.1 558.317L636.186 557.788Z" fill="white"/>
<path d="M680.923 556.378L674.758 630.918L747.15 627.041L740.985 561.312L726.718 560.607L724.604 613.12L695.366 616.116L694.133 556.554L680.923 556.378Z" fill="white"/>
<path d="M749.969 543.162L755.957 635.852L818.838 638.496L829.23 596.38L801.4 584.045L813.554 543.691L749.969 543.162ZM794.179 559.727L784.315 581.225H770.577L763.355 562.37L794.179 559.727ZM768.111 599.199L810.912 603.957L800.52 625.808L774.628 625.984L768.111 599.199Z" fill="white"/>
</svg>
