<?xml version="1.0" encoding="UTF-8" standalone="no"?>
<!-- Created with Inkscape (http://www.inkscape.org/) -->

<svg
   xmlns:dc="http://purl.org/dc/elements/1.1/"
   xmlns:cc="http://creativecommons.org/ns#"
   xmlns:rdf="http://www.w3.org/1999/02/22-rdf-syntax-ns#"
   xmlns:svg="http://www.w3.org/2000/svg"
   xmlns="http://www.w3.org/2000/svg"
   xmlns:xlink="http://www.w3.org/1999/xlink"
   xmlns:sodipodi="http://sodipodi.sourceforge.net/DTD/sodipodi-0.dtd"
   xmlns:inkscape="http://www.inkscape.org/namespaces/inkscape"
   width="92mm"
   height="92mm"
   viewBox="0 0 325.98425 325.98425"
   id="svg2"
   version="1.1"
   inkscape:version="0.92.3 (2405546, 2018-03-11)"
   sodipodi:docname="Cora-neue-fechado.svg"
   inkscape:export-filename="C:\Users\Pichau\Documents\Design\Cora Hacker Club\Cora-neue.png"
   inkscape:export-xdpi="400"
   inkscape:export-ydpi="400"
   style="shape-rendering:crispEdges">
  <defs
     id="defs4">
    <color-profile
       name="ColorMatch-RGB"
       xlink:href="/usr/share/color/icc/colord/ColorMatchRGB.icc"
       id="color-profile2" />
  </defs>
  <sodipodi:namedview
     id="base"
     pagecolor="#ffffff"
     bordercolor="#666666"
     borderopacity="1.0"
     inkscape:pageopacity="0.0"
     inkscape:pageshadow="2"
     inkscape:zoom="1.4400001"
     inkscape:cx="75.523431"
     inkscape:cy="132.18782"
     inkscape:document-units="px"
     inkscape:current-layer="g1527"
     showgrid="false"
     inkscape:showpageshadow="false"
     showborder="true"
     showguides="true"
     inkscape:guide-bbox="true"
     inkscape:window-width="2498"
     inkscape:window-height="1057"
     inkscape:window-x="54"
     inkscape:window-y="-8"
     inkscape:window-maximized="1"
     fit-margin-left="12"
     fit-margin-top="8"
     fit-margin-bottom="8"
     fit-margin-right="12">
    <inkscape:grid
       type="xygrid"
       id="grid1489"
       spacingx="9.541875"
       spacingy="9.541875"
       originx="-243.73597"
       originy="-438.61001" />
  </sodipodi:namedview>
  <metadata
     id="metadata7">
    <rdf:RDF>
      <cc:Work
         rdf:about="">
        <dc:format>image/svg+xml</dc:format>
        <dc:type
           rdf:resource="http://purl.org/dc/dcmitype/StillImage" />
        <dc:title></dc:title>
        <cc:license
           rdf:resource="http://creativecommons.org/licenses/by-nc-sa/4.0/" />
      </cc:Work>
      <cc:License
         rdf:about="http://creativecommons.org/licenses/by-nc-sa/4.0/">
        <cc:permits
           rdf:resource="http://creativecommons.org/ns#Reproduction" />
        <cc:permits
           rdf:resource="http://creativecommons.org/ns#Distribution" />
        <cc:requires
           rdf:resource="http://creativecommons.org/ns#Notice" />
        <cc:requires
           rdf:resource="http://creativecommons.org/ns#Attribution" />
        <cc:prohibits
           rdf:resource="http://creativecommons.org/ns#CommercialUse" />
        <cc:permits
           rdf:resource="http://creativecommons.org/ns#DerivativeWorks" />
        <cc:requires
           rdf:resource="http://creativecommons.org/ns#ShareAlike" />
      </cc:License>
    </rdf:RDF>
  </metadata>
  <g
     inkscape:label="Camada 1"
     inkscape:groupmode="layer"
     id="layer1"
     style="display:inline"
     transform="translate(-243.73598,-287.76794)">
    <g
       style="display:inline"
       id="g4236"
       transform="matrix(1.1,0,0,1.1,-37.204721,-76.618098)">
      <g
         id="g1502">
        <g
           id="g1527">
          <g
             id="g887"
             style="fill:#333333"
             transform="translate(-0.298643,-0.6828134)">
            <g
               id="text4166-2"
               style="font-style:normal;font-weight:normal;font-size:35.33997345px;line-height:0%;font-family:sans-serif;letter-spacing:0.75541854px;word-spacing:0px;fill:#333333;fill-opacity:1;stroke:none;stroke-width:2.9449985px;stroke-linecap:butt;stroke-linejoin:miter;stroke-opacity:1"
               aria-label="Hacker Clube">
              <path
                 inkscape:connector-curvature="0"
                 id="path843"
                 style="font-style:normal;font-variant:normal;font-weight:normal;font-stretch:normal;font-size:34.6977272px;font-family:Ubuntu;-inkscape-font-specification:Ubuntu;word-spacing:0px;fill:#333333;fill-opacity:1;stroke-width:2.9449985px"
                 d="m 317.91428,577.27387 h 3.36568 v 24.04553 h -3.36568 v -11.10328 h -11.76253 v 11.10328 h -3.36568 v -24.04553 h 3.36568 v 10.02765 h 11.76253 z" />
              <path
                 inkscape:connector-curvature="0"
                 id="path845"
                 style="font-style:normal;font-variant:normal;font-weight:normal;font-stretch:normal;font-size:34.6977272px;font-family:Ubuntu;-inkscape-font-specification:Ubuntu;word-spacing:0px;fill:#333333;fill-opacity:1;stroke-width:2.9449985px"
                 d="m 333.90471,598.99465 q 1.14502,0 2.01247,-0.0347 0.90214,-0.0694 1.492,-0.20818 v -5.37815 q -0.34698,-0.17349 -1.14503,-0.27758 -0.76335,-0.1388 -1.87367,-0.1388 -0.72866,0 -1.5614,0.1041 -0.79805,0.10409 -1.492,0.45107 -0.65926,0.31228 -1.11033,0.90214 -0.45107,0.55516 -0.45107,1.492 0,1.73489 1.11033,2.42884 1.11032,0.65926 3.0187,0.65926 z m -0.27758,-16.16914 q 1.94307,0 3.26158,0.52046 1.35321,0.48577 2.15126,1.42261 0.83275,0.90214 1.17973,2.18596 0.34697,1.24912 0.34697,2.77582 v 11.27676 q -0.41637,0.0694 -1.17972,0.20818 -0.72865,0.1041 -1.66549,0.20819 -0.93684,0.10409 -2.04717,0.17349 -1.07563,0.10409 -2.15126,0.10409 -1.5267,0 -2.81051,-0.31228 -1.28382,-0.31228 -2.22066,-0.97153 -0.93684,-0.69396 -1.4573,-1.80429 -0.52047,-1.11032 -0.52047,-2.67172 0,-1.492 0.58986,-2.56763 0.62456,-1.07563 1.6655,-1.73489 1.04093,-0.65926 2.42884,-0.97154 1.38791,-0.31227 2.91461,-0.31227 0.48576,0 1.00623,0.0694 0.52047,0.0347 0.97154,0.13879 0.48576,0.0694 0.83274,0.13879 0.34698,0.0694 0.48577,0.1041 v -0.90215 q 0,-0.79804 -0.17349,-1.56139 -0.17349,-0.79805 -0.62456,-1.38791 -0.45107,-0.62456 -1.24912,-0.97154 -0.76335,-0.38167 -2.01246,-0.38167 -1.5961,0 -2.81052,0.24288 -1.17972,0.20819 -1.76958,0.45107 l -0.38168,-2.67172 q 0.62456,-0.27759 2.08186,-0.52047 1.45731,-0.27758 3.1575,-0.27758 z" />
              <path
                 inkscape:connector-curvature="0"
                 id="path847"
                 style="font-style:normal;font-variant:normal;font-weight:normal;font-stretch:normal;font-size:34.6977272px;font-family:Ubuntu;-inkscape-font-specification:Ubuntu;word-spacing:0px;fill:#333333;fill-opacity:1;stroke-width:2.9449985px"
                 d="m 354.48933,601.73577 q -2.18595,0 -3.85144,-0.69395 -1.6308,-0.69396 -2.77582,-1.94308 -1.11033,-1.24912 -1.66549,-2.9493 -0.55517,-1.73489 -0.55517,-3.81675 0,-2.08187 0.58987,-3.81675 0.62455,-1.73489 1.73488,-2.98401 1.11033,-1.28381 2.70642,-1.97777 1.6308,-0.72865 3.60857,-0.72865 1.21442,0 2.42884,0.20818 1.21442,0.20819 2.32475,0.65926 l -0.72866,2.74112 q -0.72865,-0.34698 -1.70018,-0.55516 -0.93684,-0.20819 -2.01247,-0.20819 -2.70643,0 -4.16373,1.70019 -1.42261,1.70019 -1.42261,4.96178 0,1.4573 0.31228,2.67172 0.34698,1.21442 1.04093,2.08186 0.72866,0.86745 1.83898,1.35322 1.11033,0.45107 2.70643,0.45107 1.28381,0 2.32474,-0.24289 1.04094,-0.24288 1.6308,-0.52046 l 0.45107,2.70642 q -0.27758,0.17349 -0.79805,0.34698 -0.52047,0.13879 -1.17972,0.24288 -0.65926,0.13879 -1.42261,0.20819 -0.72865,0.10409 -1.42261,0.10409 z" />
              <path
                 inkscape:connector-curvature="0"
                 id="path849"
                 style="font-style:normal;font-variant:normal;font-weight:normal;font-stretch:normal;font-size:34.6977272px;font-family:Ubuntu;-inkscape-font-specification:Ubuntu;word-spacing:0px;fill:#333333;fill-opacity:1;stroke-width:2.9449985px"
                 d="m 370.05526,591.39585 q 1.04093,0.79804 2.18596,1.97777 1.17972,1.17972 2.29005,2.56763 1.14502,1.35321 2.15126,2.77582 1.00623,1.38791 1.70019,2.60233 h -3.78206 q -0.72865,-1.21442 -1.70018,-2.46354 -0.93684,-1.28382 -1.97777,-2.42884 -1.04094,-1.17973 -2.11657,-2.15126 -1.07563,-0.97154 -2.04716,-1.63079 v 8.67443 h -3.22689 v -26.37028 l 3.22689,-0.55516 v 16.44672 q 0.83274,-0.83274 1.83898,-1.83898 1.00623,-1.00623 1.97777,-2.04716 0.97153,-1.04093 1.83898,-1.97777 0.86744,-0.97154 1.492,-1.70019 h 3.78205 q -0.79805,0.86744 -1.73488,1.90837 -0.93684,1.04094 -1.94308,2.11657 -1.00623,1.04093 -2.04716,2.11656 -1.00624,1.04093 -1.90838,1.97777 z" />
              <path
                 inkscape:connector-curvature="0"
                 id="path851"
                 style="font-style:normal;font-variant:normal;font-weight:normal;font-stretch:normal;font-size:34.6977272px;font-family:Ubuntu;-inkscape-font-specification:Ubuntu;word-spacing:0px;fill:#333333;fill-opacity:1;stroke-width:2.9449985px"
                 d="m 380.4946,592.33269 q 0,-2.39415 0.69395,-4.16373 0.69396,-1.80428 1.83898,-2.98401 1.14503,-1.17972 2.63703,-1.76958 1.492,-0.58986 3.0534,-0.58986 3.64326,0 5.58633,2.29005 1.94308,2.25535 1.94308,6.90485 0,0.20818 0,0.55516 0,0.31228 -0.0347,0.58986 h -12.35239 q 0.20818,2.81052 1.63079,4.26782 1.42261,1.45731 4.44131,1.45731 1.70019,0 2.84521,-0.27759 1.17973,-0.31228 1.76959,-0.58986 l 0.45107,2.70643 q -0.58986,0.31228 -2.08187,0.65925 -1.4573,0.34698 -3.33098,0.34698 -2.35944,0 -4.09433,-0.69395 -1.70019,-0.72866 -2.81052,-1.97778 -1.11032,-1.24911 -1.66549,-2.9493 -0.52046,-1.73489 -0.52046,-3.78205 z m 12.38709,-1.76959 q 0.0347,-2.18596 -1.11033,-3.57386 -1.11033,-1.42261 -3.0881,-1.42261 -1.11033,0 -1.97777,0.45107 -0.83274,0.41637 -1.42261,1.11033 -0.58986,0.69395 -0.93683,1.59609 -0.31228,0.90214 -0.41638,1.83898 z" />
              <path
                 inkscape:connector-curvature="0"
                 id="path853"
                 style="font-style:normal;font-variant:normal;font-weight:normal;font-stretch:normal;font-size:34.6977272px;font-family:Ubuntu;-inkscape-font-specification:Ubuntu;word-spacing:0px;fill:#333333;fill-opacity:1;stroke-width:2.9449985px"
                 d="m 408.30015,582.8949 q 0.41637,0 0.93684,0.0694 0.55516,0.0347 1.07563,0.13879 0.52046,0.0694 0.93683,0.17349 0.45107,0.0694 0.65926,0.13879 l -0.55516,2.81052 q -0.38168,-0.1388 -1.28382,-0.31228 -0.86744,-0.20819 -2.25535,-0.20819 -0.90214,0 -1.80428,0.20819 -0.86745,0.17348 -1.14503,0.24288 v 15.16291 h -3.22689 v -17.27947 q 1.14503,-0.41637 2.84522,-0.76335 1.70019,-0.38168 3.81675,-0.38168 z" />
              <path
                 inkscape:connector-curvature="0"
                 id="path855"
                 style="font-style:normal;font-variant:normal;font-weight:normal;font-stretch:normal;font-size:34.6977272px;font-family:Ubuntu;-inkscape-font-specification:Ubuntu;word-spacing:0px;fill:#333333;fill-opacity:1;stroke-width:2.9449985px"
                 d="m 435.11214,601.83986 q -2.53294,0 -4.6148,-0.83274 -2.08187,-0.83275 -3.57387,-2.42884 -1.492,-1.5961 -2.32475,-3.92085 -0.79804,-2.35944 -0.79804,-5.37814 0,-3.01871 0.90214,-5.34345 0.93684,-2.35945 2.49823,-3.95555 1.5614,-1.59609 3.64326,-2.42884 2.08187,-0.83274 4.44131,-0.83274 1.49201,0 2.67173,0.20818 1.21442,0.20819 2.08186,0.48577 0.90214,0.27758 1.45731,0.55517 0.55516,0.27758 0.76335,0.41637 l -0.97154,2.77582 q -0.31228,-0.20819 -0.90214,-0.45107 -0.58986,-0.24289 -1.35321,-0.48577 -0.72865,-0.24289 -1.63079,-0.38168 -0.86745,-0.17348 -1.76959,-0.17348 -1.90837,0 -3.43507,0.65925 -1.5267,0.65926 -2.60233,1.90838 -1.07563,1.24912 -1.66549,3.0534 -0.55517,1.76958 -0.55517,3.99024 0,2.15125 0.48577,3.92084 0.52047,1.76958 1.5267,3.0534 1.00623,1.24912 2.49824,1.94307 1.5267,0.69396 3.53916,0.69396 2.32475,0 3.85145,-0.48577 1.5267,-0.48577 2.29005,-0.86745 l 0.86745,2.77582 q -0.24289,0.17349 -0.86745,0.45107 -0.62456,0.24289 -1.5614,0.48577 -0.93683,0.24289 -2.18595,0.41637 -1.24912,0.17349 -2.70642,0.17349 z" />
              <path
                 inkscape:connector-curvature="0"
                 id="path857"
                 style="font-style:normal;font-variant:normal;font-weight:normal;font-stretch:normal;font-size:34.6977272px;font-family:Ubuntu;-inkscape-font-specification:Ubuntu;word-spacing:0px;fill:#333333;fill-opacity:1;stroke-width:2.9449985px"
                 d="m 452.21506,601.66637 q -2.984,-0.0694 -4.23312,-1.28381 -1.24912,-1.21442 -1.24912,-3.78205 v -21.65139 l 3.22689,-0.55516 v 21.68608 q 0,0.79805 0.13879,1.31851 0.13879,0.52047 0.45107,0.83275 0.31228,0.31228 0.83275,0.48577 0.52046,0.13879 1.28381,0.24288 z" />
              <path
                 inkscape:connector-curvature="0"
                 id="path859"
                 style="font-style:normal;font-variant:normal;font-weight:normal;font-stretch:normal;font-size:34.6977272px;font-family:Ubuntu;-inkscape-font-specification:Ubuntu;word-spacing:0px;fill:#333333;fill-opacity:1;stroke-width:2.9449985px"
                 d="m 471.41015,600.79893 q -1.11033,0.27758 -2.94931,0.58986 -1.80428,0.31228 -4.19842,0.31228 -2.08187,0 -3.50447,-0.58986 -1.42261,-0.62456 -2.29005,-1.73489 -0.86745,-1.11032 -1.24912,-2.60233 -0.38168,-1.5267 -0.38168,-3.36567 v -10.13174 h 3.22689 v 9.43778 q 0,3.29628 1.04093,4.71889 1.04093,1.42261 3.50447,1.42261 0.52047,0 1.07563,-0.0347 0.55517,-0.0347 1.04093,-0.0694 0.48577,-0.0694 0.86745,-0.1041 0.41637,-0.0694 0.58986,-0.13879 v -15.2323 h 3.22689 z" />
              <path
                 inkscape:connector-curvature="0"
                 id="path861"
                 style="font-style:normal;font-variant:normal;font-weight:normal;font-stretch:normal;font-size:34.6977272px;font-family:Ubuntu;-inkscape-font-specification:Ubuntu;word-spacing:0px;fill:#333333;fill-opacity:1;stroke-width:2.9449985px"
                 d="m 480.95168,584.07463 q 0.58986,-0.38168 1.76959,-0.79805 1.21442,-0.41637 2.77581,-0.41637 1.94308,0 3.43508,0.69395 1.5267,0.69396 2.56763,1.94307 1.04093,1.24912 1.5614,2.98401 0.55516,1.73488 0.55516,3.81675 0,2.18595 -0.65925,3.95554 -0.62456,1.73489 -1.80429,2.94931 -1.17972,1.21442 -2.84521,1.87367 -1.66549,0.65926 -3.74735,0.65926 -2.25536,0 -3.99024,-0.31228 -1.73489,-0.31228 -2.84522,-0.62456 v -25.84981 l 3.22689,-0.55516 z m 0,14.43425 q 0.48577,0.13879 1.35321,0.27758 0.90214,0.1041 2.22066,0.1041 2.60233,0 4.16372,-1.70019 1.5614,-1.73489 1.5614,-4.89238 0,-1.38791 -0.27758,-2.60233 -0.27758,-1.21442 -0.90214,-2.08187 -0.62456,-0.90214 -1.63079,-1.3879 -0.97154,-0.52047 -2.35945,-0.52047 -1.31851,0 -2.42884,0.45107 -1.11033,0.45107 -1.70019,0.93684 z" />
              <path
                 inkscape:connector-curvature="0"
                 id="path863"
                 style="font-style:normal;font-variant:normal;font-weight:normal;font-stretch:normal;font-size:34.6977272px;font-family:Ubuntu;-inkscape-font-specification:Ubuntu;word-spacing:0px;fill:#333333;fill-opacity:1;stroke-width:2.9449985px"
                 d="m 497.94022,592.33269 q 0,-2.39415 0.69396,-4.16373 0.69395,-1.80428 1.83898,-2.98401 1.14502,-1.17972 2.63702,-1.76958 1.49201,-0.58986 3.0534,-0.58986 3.64327,0 5.58634,2.29005 1.94307,2.25535 1.94307,6.90485 0,0.20818 0,0.55516 0,0.31228 -0.0347,0.58986 H 501.3059 q 0.20819,2.81052 1.6308,4.26782 1.4226,1.45731 4.4413,1.45731 1.70019,0 2.84522,-0.27759 1.17972,-0.31228 1.76958,-0.58986 l 0.45107,2.70643 q -0.58986,0.31228 -2.08186,0.65925 -1.45731,0.34698 -3.33098,0.34698 -2.35945,0 -4.09433,-0.69395 -1.70019,-0.72866 -2.81052,-1.97778 -1.11033,-1.24911 -1.66549,-2.9493 -0.52047,-1.73489 -0.52047,-3.78205 z m 12.38709,-1.76959 q 0.0347,-2.18596 -1.11033,-3.57386 -1.11032,-1.42261 -3.08809,-1.42261 -1.11033,0 -1.97777,0.45107 -0.83275,0.41637 -1.42261,1.11033 -0.58986,0.69395 -0.93684,1.59609 -0.31228,0.90214 -0.41637,1.83898 z" />
            </g>
            <path
               sodipodi:nodetypes="sccccccczcccccccscccccccccc"
               inkscape:connector-curvature="0"
               id="rect4343-5"
               transform="matrix(0.85227273,0,0,0.85227273,255.40064,332.62561)"
               d="m 213.29297,30.236328 c -29.02545,-0.0257 -59.83824,9.887365 -76.33594,30.556641 h -10.17969 c 0,0 0.002,74.636721 0.002,111.957031 h 10.17773 v -10.17773 h 10.17774 V 81.146484 c 10.57691,-23.076459 42.71166,-30.53125 66.15625,-30.53125 23.44459,0 53.95942,5.026663 66.15639,30.53129 l 0.002,81.425836 h 10.17773 V 172.75 h 10.17774 V 60.792969 H 289.62695 C 273.44445,40.719782 238.73797,30.258856 213.29297,30.236328 Z M 136.95703,172.75 v 10.17969 h 10.17774 V 172.75 Z m 142.49219,10.17969 v 10.17773 h 10.17773 v -10.17773 z"
               style="opacity:1;fill:#333333;fill-opacity:1;stroke:none;stroke-width:53.17026901;stroke-linecap:butt;stroke-linejoin:miter;stroke-miterlimit:4;stroke-dasharray:none;stroke-dashoffset:0;stroke-opacity:1" />
            <g
               transform="translate(-7.0888809e-4,8.675433)"
               id="g1181"
               style="fill:#333333">
              <path
                 sodipodi:nodetypes="cccccccccccccc"
                 transform="matrix(0.85227273,0,0,0.85227273,33.822474,69.652816)"
                 inkscape:connector-curvature="0"
                 id="rect5424"
                 d="m 386.76367,501.66211 v 40.71094 h 10.17774 v -30.53321 h 20.35742 v -10.17773 z m 30.53516,10.17773 v 30.53321 h -20.35742 v 10.17773 h 30.53515 v -40.71094 z"
                 style="display:inline;opacity:1;fill:#333333;fill-opacity:1;stroke:none;stroke-width:30.23621941;stroke-linecap:round;stroke-linejoin:round;stroke-miterlimit:4;stroke-dasharray:none;stroke-opacity:1" />
            </g>
            <path
               inkscape:connector-curvature="0"
               id="rect5574"
               transform="matrix(0.85227273,0,0,0.85227273,255.40064,332.62561)"
               d="m 157.3125,81.148438 v 30.535152 h 30.53516 V 81.148438 Z m 40.71289,0 v 30.535152 h 30.5332 V 81.148438 Z m 40.71094,0 v 30.535152 h 30.53515 V 81.148438 Z M 157.3125,121.86133 v 30.5332 h 30.53516 v -30.5332 z m 40.71289,0 v 30.5332 h 10.17773 v 10.17774 h 10.17774 v -10.17774 h 10.17773 v -30.5332 z m 40.71094,0 v 30.5332 h 30.53515 v -30.5332 z m -71.2461,40.71094 V 172.75 h 10.17969 v -10.17773 z m 81.42383,0 V 172.75 h 10.17969 V 162.57227 Z M 198.02539,172.75 v 10.17969 h 10.17773 V 172.75 Z"
               style="opacity:1;fill:#333333;fill-opacity:1;stroke:none;stroke-width:30.23622513;stroke-linecap:round;stroke-linejoin:round;stroke-miterlimit:4;stroke-dasharray:none;stroke-opacity:1" />
            <path
               sodipodi:nodetypes="cccccccccccccc"
               inkscape:connector-curvature="0"
               id="rect5450"
               d="m 424.17214,505.88073 v 43.37103 h 8.6742 v -26.02262 h 8.67421 v -8.67421 h -8.67421 v -8.6742 z m 17.34841,8.6742 h 17.3484 v -8.6742 h -17.3484 z"
               style="display:inline;opacity:1;fill:#333333;fill-opacity:1;stroke:none;stroke-width:25.76950455;stroke-linecap:round;stroke-linejoin:round;stroke-miterlimit:4;stroke-dasharray:none;stroke-opacity:1" />
            <path
               sodipodi:nodetypes="ccccccccccccccccc"
               inkscape:connector-curvature="0"
               id="rect5464-0"
               d="m 476.21918,505.88095 v 8.6742 h 26.02261 v -8.6742 c -0.37045,-0.007 -26.02261,0 -26.02261,0 z m 26.02261,8.6742 v 8.67421 h -26.02261 v 26.02262 H 510.916 v -34.69683 z m -17.3484,17.34842 h 17.3484 v 8.67421 h -17.3484 z"
               style="display:inline;opacity:1;fill:#333333;fill-opacity:1;stroke:none;stroke-width:25.76950455;stroke-linecap:round;stroke-linejoin:round;stroke-miterlimit:4;stroke-dasharray:none;stroke-opacity:1" />
            <path
               sodipodi:nodetypes="ccccccccccccccccccccccccccccc"
               inkscape:connector-curvature="0"
               id="rect5200-0"
               d="m 311.40331,419.13602 v 8.67421 h -8.67421 v 8.67587 h 8.67421 v -8.67421 h 26.02428 v -8.67587 z m 26.02428,8.67587 v 17.34841 h 8.67421 v -17.34841 z m -34.69849,8.67421 h -8.6742 v 112.76634 h 8.6742 z m 0,112.76634 v 8.6742 h 34.69849 v -8.6742 z m 34.69849,0 h 8.67421 v -17.34841 h -8.67421 z"
               style="display:inline;opacity:1;fill:#333333;fill-opacity:1;stroke:none;stroke-width:25.76950455;stroke-linecap:round;stroke-linejoin:round;stroke-miterlimit:4;stroke-dasharray:none;stroke-opacity:1" />
          </g>
          <rect
             style="opacity:1;fill:#333333;fill-opacity:1;stroke:none;stroke-width:1.60486996;stroke-linecap:round;stroke-linejoin:round;stroke-miterlimit:4;stroke-dasharray:none;stroke-opacity:1"
             id="rect867"
             width="296.34933"
             height="296.34933"
             x="-40.948696"
             y="330.66815" />
          <g
             transform="translate(-296.64797,-1.2746935)"
             style="fill:#ffffff"
             id="g907">
            <g
               aria-label="Hacker Clube"
               style="font-style:normal;font-weight:normal;font-size:35.33997345px;line-height:0%;font-family:sans-serif;letter-spacing:0.75541854px;word-spacing:0px;fill:#ffffff;fill-opacity:1;stroke:none;stroke-width:2.9449985px;stroke-linecap:butt;stroke-linejoin:miter;stroke-opacity:1"
               id="g891">
              <path
                 d="m 317.91428,577.27387 h 3.36568 v 24.04553 h -3.36568 v -11.10328 h -11.76253 v 11.10328 h -3.36568 v -24.04553 h 3.36568 v 10.02765 h 11.76253 z"
                 style="font-style:normal;font-variant:normal;font-weight:normal;font-stretch:normal;font-size:34.6977272px;font-family:Ubuntu;-inkscape-font-specification:Ubuntu;word-spacing:0px;fill:#ffffff;fill-opacity:1;stroke-width:2.9449985px"
                 id="path869"
                 inkscape:connector-curvature="0" />
              <path
                 d="m 333.90471,598.99465 q 1.14502,0 2.01247,-0.0347 0.90214,-0.0694 1.492,-0.20818 v -5.37815 q -0.34698,-0.17349 -1.14503,-0.27758 -0.76335,-0.1388 -1.87367,-0.1388 -0.72866,0 -1.5614,0.1041 -0.79805,0.10409 -1.492,0.45107 -0.65926,0.31228 -1.11033,0.90214 -0.45107,0.55516 -0.45107,1.492 0,1.73489 1.11033,2.42884 1.11032,0.65926 3.0187,0.65926 z m -0.27758,-16.16914 q 1.94307,0 3.26158,0.52046 1.35321,0.48577 2.15126,1.42261 0.83275,0.90214 1.17973,2.18596 0.34697,1.24912 0.34697,2.77582 v 11.27676 q -0.41637,0.0694 -1.17972,0.20818 -0.72865,0.1041 -1.66549,0.20819 -0.93684,0.10409 -2.04717,0.17349 -1.07563,0.10409 -2.15126,0.10409 -1.5267,0 -2.81051,-0.31228 -1.28382,-0.31228 -2.22066,-0.97153 -0.93684,-0.69396 -1.4573,-1.80429 -0.52047,-1.11032 -0.52047,-2.67172 0,-1.492 0.58986,-2.56763 0.62456,-1.07563 1.6655,-1.73489 1.04093,-0.65926 2.42884,-0.97154 1.38791,-0.31227 2.91461,-0.31227 0.48576,0 1.00623,0.0694 0.52047,0.0347 0.97154,0.13879 0.48576,0.0694 0.83274,0.13879 0.34698,0.0694 0.48577,0.1041 v -0.90215 q 0,-0.79804 -0.17349,-1.56139 -0.17349,-0.79805 -0.62456,-1.38791 -0.45107,-0.62456 -1.24912,-0.97154 -0.76335,-0.38167 -2.01246,-0.38167 -1.5961,0 -2.81052,0.24288 -1.17972,0.20819 -1.76958,0.45107 l -0.38168,-2.67172 q 0.62456,-0.27759 2.08186,-0.52047 1.45731,-0.27758 3.1575,-0.27758 z"
                 style="font-style:normal;font-variant:normal;font-weight:normal;font-stretch:normal;font-size:34.6977272px;font-family:Ubuntu;-inkscape-font-specification:Ubuntu;word-spacing:0px;fill:#ffffff;fill-opacity:1;stroke-width:2.9449985px"
                 id="path871"
                 inkscape:connector-curvature="0" />
              <path
                 d="m 354.48933,601.73577 q -2.18595,0 -3.85144,-0.69395 -1.6308,-0.69396 -2.77582,-1.94308 -1.11033,-1.24912 -1.66549,-2.9493 -0.55517,-1.73489 -0.55517,-3.81675 0,-2.08187 0.58987,-3.81675 0.62455,-1.73489 1.73488,-2.98401 1.11033,-1.28381 2.70642,-1.97777 1.6308,-0.72865 3.60857,-0.72865 1.21442,0 2.42884,0.20818 1.21442,0.20819 2.32475,0.65926 l -0.72866,2.74112 q -0.72865,-0.34698 -1.70018,-0.55516 -0.93684,-0.20819 -2.01247,-0.20819 -2.70643,0 -4.16373,1.70019 -1.42261,1.70019 -1.42261,4.96178 0,1.4573 0.31228,2.67172 0.34698,1.21442 1.04093,2.08186 0.72866,0.86745 1.83898,1.35322 1.11033,0.45107 2.70643,0.45107 1.28381,0 2.32474,-0.24289 1.04094,-0.24288 1.6308,-0.52046 l 0.45107,2.70642 q -0.27758,0.17349 -0.79805,0.34698 -0.52047,0.13879 -1.17972,0.24288 -0.65926,0.13879 -1.42261,0.20819 -0.72865,0.10409 -1.42261,0.10409 z"
                 style="font-style:normal;font-variant:normal;font-weight:normal;font-stretch:normal;font-size:34.6977272px;font-family:Ubuntu;-inkscape-font-specification:Ubuntu;word-spacing:0px;fill:#ffffff;fill-opacity:1;stroke-width:2.9449985px"
                 id="path873"
                 inkscape:connector-curvature="0" />
              <path
                 d="m 370.05526,591.39585 q 1.04093,0.79804 2.18596,1.97777 1.17972,1.17972 2.29005,2.56763 1.14502,1.35321 2.15126,2.77582 1.00623,1.38791 1.70019,2.60233 h -3.78206 q -0.72865,-1.21442 -1.70018,-2.46354 -0.93684,-1.28382 -1.97777,-2.42884 -1.04094,-1.17973 -2.11657,-2.15126 -1.07563,-0.97154 -2.04716,-1.63079 v 8.67443 h -3.22689 v -26.37028 l 3.22689,-0.55516 v 16.44672 q 0.83274,-0.83274 1.83898,-1.83898 1.00623,-1.00623 1.97777,-2.04716 0.97153,-1.04093 1.83898,-1.97777 0.86744,-0.97154 1.492,-1.70019 h 3.78205 q -0.79805,0.86744 -1.73488,1.90837 -0.93684,1.04094 -1.94308,2.11657 -1.00623,1.04093 -2.04716,2.11656 -1.00624,1.04093 -1.90838,1.97777 z"
                 style="font-style:normal;font-variant:normal;font-weight:normal;font-stretch:normal;font-size:34.6977272px;font-family:Ubuntu;-inkscape-font-specification:Ubuntu;word-spacing:0px;fill:#ffffff;fill-opacity:1;stroke-width:2.9449985px"
                 id="path875"
                 inkscape:connector-curvature="0" />
              <path
                 d="m 380.4946,592.33269 q 0,-2.39415 0.69395,-4.16373 0.69396,-1.80428 1.83898,-2.98401 1.14503,-1.17972 2.63703,-1.76958 1.492,-0.58986 3.0534,-0.58986 3.64326,0 5.58633,2.29005 1.94308,2.25535 1.94308,6.90485 0,0.20818 0,0.55516 0,0.31228 -0.0347,0.58986 h -12.35239 q 0.20818,2.81052 1.63079,4.26782 1.42261,1.45731 4.44131,1.45731 1.70019,0 2.84521,-0.27759 1.17973,-0.31228 1.76959,-0.58986 l 0.45107,2.70643 q -0.58986,0.31228 -2.08187,0.65925 -1.4573,0.34698 -3.33098,0.34698 -2.35944,0 -4.09433,-0.69395 -1.70019,-0.72866 -2.81052,-1.97778 -1.11032,-1.24911 -1.66549,-2.9493 -0.52046,-1.73489 -0.52046,-3.78205 z m 12.38709,-1.76959 q 0.0347,-2.18596 -1.11033,-3.57386 -1.11033,-1.42261 -3.0881,-1.42261 -1.11033,0 -1.97777,0.45107 -0.83274,0.41637 -1.42261,1.11033 -0.58986,0.69395 -0.93683,1.59609 -0.31228,0.90214 -0.41638,1.83898 z"
                 style="font-style:normal;font-variant:normal;font-weight:normal;font-stretch:normal;font-size:34.6977272px;font-family:Ubuntu;-inkscape-font-specification:Ubuntu;word-spacing:0px;fill:#ffffff;fill-opacity:1;stroke-width:2.9449985px"
                 id="path877"
                 inkscape:connector-curvature="0" />
              <path
                 d="m 408.30015,582.8949 q 0.41637,0 0.93684,0.0694 0.55516,0.0347 1.07563,0.13879 0.52046,0.0694 0.93683,0.17349 0.45107,0.0694 0.65926,0.13879 l -0.55516,2.81052 q -0.38168,-0.1388 -1.28382,-0.31228 -0.86744,-0.20819 -2.25535,-0.20819 -0.90214,0 -1.80428,0.20819 -0.86745,0.17348 -1.14503,0.24288 v 15.16291 h -3.22689 v -17.27947 q 1.14503,-0.41637 2.84522,-0.76335 1.70019,-0.38168 3.81675,-0.38168 z"
                 style="font-style:normal;font-variant:normal;font-weight:normal;font-stretch:normal;font-size:34.6977272px;font-family:Ubuntu;-inkscape-font-specification:Ubuntu;word-spacing:0px;fill:#ffffff;fill-opacity:1;stroke-width:2.9449985px"
                 id="path879"
                 inkscape:connector-curvature="0" />
              <path
                 d="m 435.11214,601.83986 q -2.53294,0 -4.6148,-0.83274 -2.08187,-0.83275 -3.57387,-2.42884 -1.492,-1.5961 -2.32475,-3.92085 -0.79804,-2.35944 -0.79804,-5.37814 0,-3.01871 0.90214,-5.34345 0.93684,-2.35945 2.49823,-3.95555 1.5614,-1.59609 3.64326,-2.42884 2.08187,-0.83274 4.44131,-0.83274 1.49201,0 2.67173,0.20818 1.21442,0.20819 2.08186,0.48577 0.90214,0.27758 1.45731,0.55517 0.55516,0.27758 0.76335,0.41637 l -0.97154,2.77582 q -0.31228,-0.20819 -0.90214,-0.45107 -0.58986,-0.24289 -1.35321,-0.48577 -0.72865,-0.24289 -1.63079,-0.38168 -0.86745,-0.17348 -1.76959,-0.17348 -1.90837,0 -3.43507,0.65925 -1.5267,0.65926 -2.60233,1.90838 -1.07563,1.24912 -1.66549,3.0534 -0.55517,1.76958 -0.55517,3.99024 0,2.15125 0.48577,3.92084 0.52047,1.76958 1.5267,3.0534 1.00623,1.24912 2.49824,1.94307 1.5267,0.69396 3.53916,0.69396 2.32475,0 3.85145,-0.48577 1.5267,-0.48577 2.29005,-0.86745 l 0.86745,2.77582 q -0.24289,0.17349 -0.86745,0.45107 -0.62456,0.24289 -1.5614,0.48577 -0.93683,0.24289 -2.18595,0.41637 -1.24912,0.17349 -2.70642,0.17349 z"
                 style="font-style:normal;font-variant:normal;font-weight:normal;font-stretch:normal;font-size:34.6977272px;font-family:Ubuntu;-inkscape-font-specification:Ubuntu;word-spacing:0px;fill:#ffffff;fill-opacity:1;stroke-width:2.9449985px"
                 id="path881"
                 inkscape:connector-curvature="0" />
              <path
                 d="m 452.21506,601.66637 q -2.984,-0.0694 -4.23312,-1.28381 -1.24912,-1.21442 -1.24912,-3.78205 v -21.65139 l 3.22689,-0.55516 v 21.68608 q 0,0.79805 0.13879,1.31851 0.13879,0.52047 0.45107,0.83275 0.31228,0.31228 0.83275,0.48577 0.52046,0.13879 1.28381,0.24288 z"
                 style="font-style:normal;font-variant:normal;font-weight:normal;font-stretch:normal;font-size:34.6977272px;font-family:Ubuntu;-inkscape-font-specification:Ubuntu;word-spacing:0px;fill:#ffffff;fill-opacity:1;stroke-width:2.9449985px"
                 id="path883"
                 inkscape:connector-curvature="0" />
              <path
                 d="m 471.41015,600.79893 q -1.11033,0.27758 -2.94931,0.58986 -1.80428,0.31228 -4.19842,0.31228 -2.08187,0 -3.50447,-0.58986 -1.42261,-0.62456 -2.29005,-1.73489 -0.86745,-1.11032 -1.24912,-2.60233 -0.38168,-1.5267 -0.38168,-3.36567 v -10.13174 h 3.22689 v 9.43778 q 0,3.29628 1.04093,4.71889 1.04093,1.42261 3.50447,1.42261 0.52047,0 1.07563,-0.0347 0.55517,-0.0347 1.04093,-0.0694 0.48577,-0.0694 0.86745,-0.1041 0.41637,-0.0694 0.58986,-0.13879 v -15.2323 h 3.22689 z"
                 style="font-style:normal;font-variant:normal;font-weight:normal;font-stretch:normal;font-size:34.6977272px;font-family:Ubuntu;-inkscape-font-specification:Ubuntu;word-spacing:0px;fill:#ffffff;fill-opacity:1;stroke-width:2.9449985px"
                 id="path885"
                 inkscape:connector-curvature="0" />
              <path
                 d="m 480.95168,584.07463 q 0.58986,-0.38168 1.76959,-0.79805 1.21442,-0.41637 2.77581,-0.41637 1.94308,0 3.43508,0.69395 1.5267,0.69396 2.56763,1.94307 1.04093,1.24912 1.5614,2.98401 0.55516,1.73488 0.55516,3.81675 0,2.18595 -0.65925,3.95554 -0.62456,1.73489 -1.80429,2.94931 -1.17972,1.21442 -2.84521,1.87367 -1.66549,0.65926 -3.74735,0.65926 -2.25536,0 -3.99024,-0.31228 -1.73489,-0.31228 -2.84522,-0.62456 v -25.84981 l 3.22689,-0.55516 z m 0,14.43425 q 0.48577,0.13879 1.35321,0.27758 0.90214,0.1041 2.22066,0.1041 2.60233,0 4.16372,-1.70019 1.5614,-1.73489 1.5614,-4.89238 0,-1.38791 -0.27758,-2.60233 -0.27758,-1.21442 -0.90214,-2.08187 -0.62456,-0.90214 -1.63079,-1.3879 -0.97154,-0.52047 -2.35945,-0.52047 -1.31851,0 -2.42884,0.45107 -1.11033,0.45107 -1.70019,0.93684 z"
                 style="font-style:normal;font-variant:normal;font-weight:normal;font-stretch:normal;font-size:34.6977272px;font-family:Ubuntu;-inkscape-font-specification:Ubuntu;word-spacing:0px;fill:#ffffff;fill-opacity:1;stroke-width:2.9449985px"
                 id="path887"
                 inkscape:connector-curvature="0" />
              <path
                 d="m 497.94022,592.33269 q 0,-2.39415 0.69396,-4.16373 0.69395,-1.80428 1.83898,-2.98401 1.14502,-1.17972 2.63702,-1.76958 1.49201,-0.58986 3.0534,-0.58986 3.64327,0 5.58634,2.29005 1.94307,2.25535 1.94307,6.90485 0,0.20818 0,0.55516 0,0.31228 -0.0347,0.58986 H 501.3059 q 0.20819,2.81052 1.6308,4.26782 1.4226,1.45731 4.4413,1.45731 1.70019,0 2.84522,-0.27759 1.17972,-0.31228 1.76958,-0.58986 l 0.45107,2.70643 q -0.58986,0.31228 -2.08186,0.65925 -1.45731,0.34698 -3.33098,0.34698 -2.35945,0 -4.09433,-0.69395 -1.70019,-0.72866 -2.81052,-1.97778 -1.11033,-1.24911 -1.66549,-2.9493 -0.52047,-1.73489 -0.52047,-3.78205 z m 12.38709,-1.76959 q 0.0347,-2.18596 -1.11033,-3.57386 -1.11032,-1.42261 -3.08809,-1.42261 -1.11033,0 -1.97777,0.45107 -0.83275,0.41637 -1.42261,1.11033 -0.58986,0.69395 -0.93684,1.59609 -0.31228,0.90214 -0.41637,1.83898 z"
                 style="font-style:normal;font-variant:normal;font-weight:normal;font-stretch:normal;font-size:34.6977272px;font-family:Ubuntu;-inkscape-font-specification:Ubuntu;word-spacing:0px;fill:#ffffff;fill-opacity:1;stroke-width:2.9449985px"
                 id="path889"
                 inkscape:connector-curvature="0" />
            </g>
            <path
               style="opacity:1;fill:#ffffff;fill-opacity:1;stroke:none;stroke-width:53.17026901;stroke-linecap:butt;stroke-linejoin:miter;stroke-miterlimit:4;stroke-dasharray:none;stroke-dashoffset:0;stroke-opacity:1"
               d="m 213.29297,30.236328 c -29.02545,-0.0257 -59.83824,9.887365 -76.33594,30.556641 h -10.17969 c 0,0 0.002,74.636721 0.002,111.957031 h 10.17773 v -10.17773 h 10.17774 V 81.146484 c 10.57691,-23.076459 42.71166,-30.53125 66.15625,-30.53125 23.44459,0 53.95942,5.026663 66.15639,30.53129 l 0.002,81.425836 h 10.17773 V 172.75 h 10.17774 V 60.792969 H 289.62695 C 273.44445,40.719782 238.73797,30.258856 213.29297,30.236328 Z M 136.95703,172.75 v 10.17969 h 10.17774 V 172.75 Z m 142.49219,10.17969 v 10.17773 h 10.17773 v -10.17773 z"
               transform="matrix(0.85227273,0,0,0.85227273,255.40064,332.62561)"
               id="path893"
               inkscape:connector-curvature="0"
               sodipodi:nodetypes="sccccccczcccccccscccccccccc" />
            <g
               style="fill:#ffffff"
               id="g897"
               transform="translate(-7.0888809e-4,8.675433)">
              <path
                 style="display:inline;opacity:1;fill:#ffffff;fill-opacity:1;stroke:none;stroke-width:30.23621941;stroke-linecap:round;stroke-linejoin:round;stroke-miterlimit:4;stroke-dasharray:none;stroke-opacity:1"
                 d="m 386.76367,501.66211 v 40.71094 h 10.17774 v -30.53321 h 20.35742 v -10.17773 z m 30.53516,10.17773 v 30.53321 h -20.35742 v 10.17773 h 30.53515 v -40.71094 z"
                 id="path895"
                 inkscape:connector-curvature="0"
                 transform="matrix(0.85227273,0,0,0.85227273,33.822474,69.652816)"
                 sodipodi:nodetypes="cccccccccccccc" />
            </g>
            <path
               style="opacity:1;fill:#ffffff;fill-opacity:1;stroke:none;stroke-width:30.23622513;stroke-linecap:round;stroke-linejoin:round;stroke-miterlimit:4;stroke-dasharray:none;stroke-opacity:1"
               d="m 157.3125,81.148438 v 30.535152 h 30.53516 V 81.148438 Z m 40.71289,0 v 30.535152 h 30.5332 V 81.148438 Z m 40.71094,0 v 30.535152 h 30.53515 V 81.148438 Z M 157.3125,121.86133 v 30.5332 h 30.53516 v -30.5332 z m 40.71289,0 v 30.5332 h 10.17773 v 10.17774 h 10.17774 v -10.17774 h 10.17773 v -30.5332 z m 40.71094,0 v 30.5332 h 30.53515 v -30.5332 z m -71.2461,40.71094 V 172.75 h 10.17969 v -10.17773 z m 81.42383,0 V 172.75 h 10.17969 V 162.57227 Z M 198.02539,172.75 v 10.17969 h 10.17773 V 172.75 Z"
               transform="matrix(0.85227273,0,0,0.85227273,255.40064,332.62561)"
               id="path899"
               inkscape:connector-curvature="0" />
            <path
               style="display:inline;opacity:1;fill:#ffffff;fill-opacity:1;stroke:none;stroke-width:25.76950455;stroke-linecap:round;stroke-linejoin:round;stroke-miterlimit:4;stroke-dasharray:none;stroke-opacity:1"
               d="m 424.17214,505.88073 v 43.37103 h 8.6742 v -26.02262 h 8.67421 v -8.67421 h -8.67421 v -8.6742 z m 17.34841,8.6742 h 17.3484 v -8.6742 h -17.3484 z"
               id="path901"
               inkscape:connector-curvature="0"
               sodipodi:nodetypes="cccccccccccccc" />
            <path
               style="display:inline;opacity:1;fill:#ffffff;fill-opacity:1;stroke:none;stroke-width:25.76950455;stroke-linecap:round;stroke-linejoin:round;stroke-miterlimit:4;stroke-dasharray:none;stroke-opacity:1"
               d="m 476.21918,505.88095 v 8.6742 h 26.02261 v -8.6742 c -0.37045,-0.007 -26.02261,0 -26.02261,0 z m 26.02261,8.6742 v 8.67421 h -26.02261 v 26.02262 H 510.916 v -34.69683 z m -17.3484,17.34842 h 17.3484 v 8.67421 h -17.3484 z"
               id="path903"
               inkscape:connector-curvature="0"
               sodipodi:nodetypes="ccccccccccccccccc" />
            <path
               style="display:inline;opacity:1;fill:#ffffff;fill-opacity:1;stroke:none;stroke-width:25.76950455;stroke-linecap:round;stroke-linejoin:round;stroke-miterlimit:4;stroke-dasharray:none;stroke-opacity:1"
               d="m 311.40331,419.13602 v 8.67421 h -8.67421 v 8.67587 h 8.67421 v -8.67421 h 26.02428 v -8.67587 z m 26.02428,8.67587 v 17.34841 h 8.67421 v -17.34841 z m -34.69849,8.67421 h -8.6742 v 112.76634 h 8.6742 z m 0,112.76634 v 8.6742 h 34.69849 v -8.6742 z m 34.69849,0 h 8.67421 v -17.34841 h -8.67421 z"
               id="path905"
               inkscape:connector-curvature="0"
               sodipodi:nodetypes="ccccccccccccccccccccccccccccc" />
          </g>
        </g>
      </g>
    </g>
  </g>
  <g
     inkscape:groupmode="layer"
     id="layer2"
     inkscape:label="marcas de impressão"
     style="display:inline"
     transform="translate(-243.73598,-287.76794)" />
</svg>
