<?xml version="1.0" encoding="UTF-8" standalone="no"?>
<!-- Created with Inkscape (http://www.inkscape.org/) -->

<svg
   xmlns:dc="http://purl.org/dc/elements/1.1/"
   xmlns:cc="http://creativecommons.org/ns#"
   xmlns:rdf="http://www.w3.org/1999/02/22-rdf-syntax-ns#"
   xmlns:svg="http://www.w3.org/2000/svg"
   xmlns="http://www.w3.org/2000/svg"
   xmlns:sodipodi="http://sodipodi.sourceforge.net/DTD/sodipodi-0.dtd"
   xmlns:inkscape="http://www.inkscape.org/namespaces/inkscape"
   width="900mm"
   height="600mm"
   viewBox="0 0 900 600"
   version="1.1"
   id="svg8"
   sodipodi:docname="santos hacker clube logo txt.svg"
   inkscape:version="0.92.1 r15371">
  <defs
     id="defs2" />
  <sodipodi:namedview
     id="base"
     pagecolor="#ffffff"
     bordercolor="#666666"
     borderopacity="1.0"
     inkscape:pageopacity="0.0"
     inkscape:pageshadow="2"
     inkscape:zoom="0.7"
     inkscape:cx="1212.8212"
     inkscape:cy="1304.1849"
     inkscape:document-units="mm"
     inkscape:current-layer="layer1"
     showgrid="false"
     inkscape:window-width="1366"
     inkscape:window-height="705"
     inkscape:window-x="-8"
     inkscape:window-y="-8"
     inkscape:window-maximized="1" />
  <metadata
     id="metadata5">
    <rdf:RDF>
      <cc:Work
         rdf:about="">
        <dc:format>image/svg+xml</dc:format>
        <dc:type
           rdf:resource="http://purl.org/dc/dcmitype/StillImage" />
        <dc:title></dc:title>
      </cc:Work>
    </rdf:RDF>
  </metadata>
  <g
     inkscape:label="Layer 1"
     inkscape:groupmode="layer"
     id="layer1"
     transform="translate(0,303)">
    <path
       inkscape:connector-curvature="0"
       style="opacity:1;fill:#000000;fill-opacity:1;stroke:none;stroke-width:0.20000002;stroke-miterlimit:4;stroke-dasharray:none;stroke-opacity:1"
       d="m 323.84404,-67.36388 v 5.95985 h 3.75689 v 24.05795 h -3.75689 v 5.95984 h 43.49141 v -5.95984 h -3.75687 v -24.05795 h 3.75687 v -5.95985 z m 9.71674,5.95985 h 6.48332 a 13.261592,13.261592 0 0 0 -6.48332,6.47969 z m 17.5772,0 h 6.48075 v 6.48332 a 13.261592,13.261592 0 0 0 -6.48075,-6.48332 z m -5.5485,6.9696 a 5.0596033,5.0596033 0 0 1 5.05965,5.05912 5.0596033,5.0596033 0 0 1 -3.62614,4.84881 l 2.03914,7.18042 h -6.94531 l 2.03917,-7.17992 a 5.0596033,5.0596033 0 0 1 -3.62614,-4.84931 5.0596033,5.0596033 0 0 1 5.05963,-5.05912 z m -12.0287,10.60606 a 13.261592,13.261592 0 0 0 6.4802,6.48229 h -6.4802 z m 24.05795,0.003 v 6.48073 h -6.48385 a 13.261592,13.261592 0 0 0 6.48385,-6.48073 z"
       id="rect4559-7" />
    <g
       id="g4703"
       transform="matrix(0.93429471,0,0,0.93429471,-583.51228,-158.5662)"
       style="stroke-width:1.07032609">
      <path
         d="m 1025.6925,108.1792 c 2.6221,0 3.7584,-1.31108 3.7584,-3.13201 0,-1.39848 -0.6701,-2.34537 -2.6513,-3.0009 l -1.3111,-0.43703 c -0.4807,-0.16024 -0.6992,-0.34962 -0.6992,-0.72837 0,-0.39333 0.3205,-0.68468 0.9615,-0.68468 0.7866,0 1.2236,0.29135 1.6315,0.71381 l 1.515,-1.587855 c -0.5827,-0.684672 -1.5441,-1.311074 -3.2922,-1.311074 -1.7627,0 -3.3797,1.005156 -3.3797,2.957199 0,1.63156 1.0197,2.50561 2.4619,2.98634 l 1.1654,0.39332 c 0.6556,0.21851 0.9761,0.42246 0.9761,0.84491 0,0.55357 -0.4662,0.78665 -1.2529,0.78665 -0.9905,0 -1.5878,-0.48073 -2.0685,-1.078 l -1.9229,1.44218 c 0.6118,0.81578 1.8792,1.83551 4.108,1.83551 z"
         style="font-style:normal;font-variant:normal;font-weight:normal;font-stretch:normal;font-size:medium;line-height:1.25;font-family:'Neutra Display';-inkscape-font-specification:'Neutra Display';letter-spacing:0px;word-spacing:0px;fill:#000000;fill-opacity:1;stroke:none;stroke-width:0.28319043"
         id="path4630"
         inkscape:connector-curvature="0" />
      <path
         d="m 1032.679,107.18861 c 0,0 3.7438,0 3.7292,0 l 0.3788,0.84491 h 2.7387 l -4.8073,-10.080699 c -0.044,-0.101973 -0.1311,-0.101973 -0.1748,0 l -4.8218,10.080699 h 2.593 z m 2.8552,-1.98118 h -2.0103 l 0.9906,-2.30166 z"
         style="font-style:normal;font-variant:normal;font-weight:normal;font-stretch:normal;font-size:medium;line-height:1.25;font-family:'Neutra Display';-inkscape-font-specification:'Neutra Display';letter-spacing:0px;word-spacing:0px;fill:#000000;fill-opacity:1;stroke:none;stroke-width:0.28319043"
         id="path4632"
         inkscape:connector-curvature="0" />
      <path
         d="m 1049.1641,108.20833 c 0.1603,0.13111 0.204,0.0874 0.204,-0.0291 V 98.127631 h -2.4911 v 4.967509 l -6.2203,-5.127752 c -0.1602,-0.131107 -0.2039,-0.05827 -0.2039,0.02913 v 10.036992 h 2.491 v -4.93838 z"
         style="font-style:normal;font-variant:normal;font-weight:normal;font-stretch:normal;font-size:medium;line-height:1.25;font-family:'Neutra Display';-inkscape-font-specification:'Neutra Display';letter-spacing:0px;word-spacing:0px;fill:#000000;fill-opacity:1;stroke:none;stroke-width:0.28319043"
         id="path4634"
         inkscape:connector-curvature="0" />
      <path
         d="m 1053.1916,108.03352 h 2.6513 v -7.67706 h 2.6221 v -2.228829 h -7.8956 v 2.228829 h 2.6222 z"
         style="font-style:normal;font-variant:normal;font-weight:normal;font-stretch:normal;font-size:medium;line-height:1.25;font-family:'Neutra Display';-inkscape-font-specification:'Neutra Display';letter-spacing:0px;word-spacing:0px;fill:#000000;fill-opacity:1;stroke:none;stroke-width:0.28319043"
         id="path4636"
         inkscape:connector-curvature="0" />
      <path
         d="m 1063.9822,108.16463 c 2.8553,0 5.3172,-2.09772 5.3172,-5.08405 0,-2.98634 -2.4619,-5.069489 -5.3172,-5.069489 -2.8552,0 -5.3171,2.083149 -5.3171,5.069489 0,2.98633 2.4619,5.08405 5.3171,5.08405 z m 0,-2.30166 c -1.6607,0 -2.6076,-1.22367 -2.6076,-2.78239 0,-1.55872 0.9469,-2.76783 2.6076,-2.76783 1.6607,0 2.6076,1.20911 2.6076,2.76783 0,1.55872 -0.9469,2.78239 -2.6076,2.78239 z"
         style="font-style:normal;font-variant:normal;font-weight:normal;font-stretch:normal;font-size:medium;line-height:1.25;font-family:'Neutra Display';-inkscape-font-specification:'Neutra Display';letter-spacing:0px;word-spacing:0px;fill:#000000;fill-opacity:1;stroke:none;stroke-width:0.28319043"
         id="path4638"
         inkscape:connector-curvature="0" />
      <path
         d="m 1073.5774,108.1792 c 2.6222,0 3.7584,-1.31108 3.7584,-3.13201 0,-1.39848 -0.6701,-2.34537 -2.6513,-3.0009 l -1.311,-0.43703 c -0.4808,-0.16024 -0.6993,-0.34962 -0.6993,-0.72837 0,-0.39333 0.3205,-0.68468 0.9615,-0.68468 0.7866,0 1.2237,0.29135 1.6315,0.71381 l 1.5151,-1.587855 c -0.5827,-0.684672 -1.5442,-1.311074 -3.2923,-1.311074 -1.7627,0 -3.3796,1.005156 -3.3796,2.957199 0,1.63156 1.0197,2.50561 2.4619,2.98634 l 1.1654,0.39332 c 0.6555,0.21851 0.976,0.42246 0.976,0.84491 0,0.55357 -0.4662,0.78665 -1.2528,0.78665 -0.9906,0 -1.5879,-0.48073 -2.0686,-1.078 l -1.9229,1.44218 c 0.6118,0.81578 1.8792,1.83551 4.108,1.83551 z"
         style="font-style:normal;font-variant:normal;font-weight:normal;font-stretch:normal;font-size:medium;line-height:1.25;font-family:'Neutra Display';-inkscape-font-specification:'Neutra Display';letter-spacing:0px;word-spacing:0px;fill:#000000;fill-opacity:1;stroke:none;stroke-width:0.28319043"
         id="path4640"
         inkscape:connector-curvature="0" />
    </g>
    <g
       id="g4695"
       transform="matrix(0.93618217,0,0,0.93618217,-586.19052,-163.73344)"
       style="stroke-width:1.06816804">
      <path
         d="m 1028.4749,120.86748 h -3.438 v -4.53049 h -2.6512 v 9.9059 h 2.6512 v -3.14658 h 3.438 v 3.14658 h 2.6513 v -9.9059 h -2.6513 z"
         style="font-style:normal;font-variant:normal;font-weight:normal;font-stretch:normal;font-size:medium;line-height:1.25;font-family:'Neutra Display';-inkscape-font-specification:'Neutra Display';letter-spacing:0px;word-spacing:0px;fill:#000000;fill-opacity:1;stroke:none;stroke-width:0.28261951"
         id="path4642"
         inkscape:connector-curvature="0" />
      <path
         d="m 1035.012,125.39797 c 0,0 3.7439,0 3.7293,0 l 0.3788,0.84492 h 2.7387 l -4.8073,-10.08071 c -0.044,-0.10197 -0.1311,-0.10197 -0.1748,0 l -4.8219,10.08071 h 2.593 z m 2.8553,-1.98118 h -2.0103 l 0.9905,-2.30166 z"
         style="font-style:normal;font-variant:normal;font-weight:normal;font-stretch:normal;font-size:medium;line-height:1.25;font-family:'Neutra Display';-inkscape-font-specification:'Neutra Display';letter-spacing:0px;word-spacing:0px;fill:#000000;fill-opacity:1;stroke:none;stroke-width:0.28261951"
         id="path4644"
         inkscape:connector-curvature="0" />
      <path
         d="m 1050.8788,124.01406 -2.0395,-1.31107 c -0.4224,0.78664 -1.0488,1.36934 -2.3308,1.36934 -1.515,0 -2.4328,-1.22367 -2.4328,-2.78239 0,-1.55872 0.8887,-2.76782 2.3454,-2.76782 1.2528,0 1.8647,0.59726 2.2434,1.17996 l 1.9958,-1.35477 c -0.8304,-1.22367 -2.1415,-2.12686 -4.2829,-2.12686 -2.6513,0 -5.0112,2.08315 -5.0112,5.06949 0,2.98633 2.3745,5.08405 5.1569,5.08405 2.0103,0 3.3796,-0.7138 4.3557,-2.35993 z"
         style="font-style:normal;font-variant:normal;font-weight:normal;font-stretch:normal;font-size:medium;line-height:1.25;font-family:'Neutra Display';-inkscape-font-specification:'Neutra Display';letter-spacing:0px;word-spacing:0px;fill:#000000;fill-opacity:1;stroke:none;stroke-width:0.28261951"
         id="path4646"
         inkscape:connector-curvature="0" />
      <path
         d="m 1054.5418,120.85291 v -4.51592 h -2.6513 v 9.9059 h 2.6513 v -2.98634 l 2.7387,2.98634 h 3.4379 l -4.108,-4.34112 c 0.015,0 3.9186,-5.56478 3.9186,-5.56478 h -2.9426 z"
         style="font-style:normal;font-variant:normal;font-weight:normal;font-stretch:normal;font-size:medium;line-height:1.25;font-family:'Neutra Display';-inkscape-font-specification:'Neutra Display';letter-spacing:0px;word-spacing:0px;fill:#000000;fill-opacity:1;stroke:none;stroke-width:0.28261951"
         id="path4648"
         inkscape:connector-curvature="0" />
      <path
         d="m 1061.6781,126.24289 h 7.1526 v -2.22883 h -4.5014 v -1.03429 h 3.5836 v -2.11229 h -3.5836 v -2.30166 h 4.2974 v -2.22883 h -6.9486 z"
         style="font-style:normal;font-variant:normal;font-weight:normal;font-stretch:normal;font-size:medium;line-height:1.25;font-family:'Neutra Display';-inkscape-font-specification:'Neutra Display';letter-spacing:0px;word-spacing:0px;fill:#000000;fill-opacity:1;stroke:none;stroke-width:0.28261951"
         id="path4650"
         inkscape:connector-curvature="0" />
      <path
         d="m 1076.2328,123.43136 c 1.1654,-0.64097 1.7918,-1.77723 1.7918,-3.20485 0,-2.19969 -1.5005,-3.88952 -4.1663,-3.88952 h -3.7584 v 9.9059 h 2.6513 v -2.27253 h 0.9906 l 1.3839,2.27253 h 2.8698 z m -3.4816,-1.57329 v -3.27768 h 0.976 c 1.1945,0 1.6315,0.68467 1.6315,1.64612 0,0.96146 -0.437,1.63156 -1.6315,1.63156 z"
         style="font-style:normal;font-variant:normal;font-weight:normal;font-stretch:normal;font-size:medium;line-height:1.25;font-family:'Neutra Display';-inkscape-font-specification:'Neutra Display';letter-spacing:0px;word-spacing:0px;fill:#000000;fill-opacity:1;stroke:none;stroke-width:0.28261951"
         id="path4652"
         inkscape:connector-curvature="0" />
    </g>
    <g
       id="g4687"
       transform="matrix(1.1628921,0,0,1.1628921,-817.41636,-199.24028)"
       style="stroke-width:0.85992503">
      <path
         d="m 1031.4175,142.22342 -2.0394,-1.31107 c -0.4225,0.78664 -1.0489,1.36934 -2.3308,1.36934 -1.5151,0 -2.4328,-1.22367 -2.4328,-2.78239 0,-1.55872 0.8886,-2.76782 2.3454,-2.76782 1.2528,0 1.8646,0.59727 2.2434,1.17996 l 1.9957,-1.35477 c -0.8303,-1.22367 -2.1414,-2.12686 -4.2828,-2.12686 -2.6513,0 -5.0113,2.08316 -5.0113,5.06949 0,2.98634 2.3745,5.08406 5.1569,5.08406 2.0103,0 3.3797,-0.71381 4.3557,-2.35994 z"
         style="font-style:normal;font-variant:normal;font-weight:normal;font-stretch:normal;font-size:medium;line-height:1.25;font-family:'Neutra Display';-inkscape-font-specification:'Neutra Display';letter-spacing:0px;word-spacing:0px;fill:#000000;fill-opacity:1;stroke:none;stroke-width:0.22752181"
         id="path4654"
         inkscape:connector-curvature="0" />
      <path
         d="m 1032.4293,144.45225 h 6.8613 v -2.22883 h -4.21 v -7.67707 h -2.6513 z"
         style="font-style:normal;font-variant:normal;font-weight:normal;font-stretch:normal;font-size:medium;line-height:1.25;font-family:'Neutra Display';-inkscape-font-specification:'Neutra Display';letter-spacing:0px;word-spacing:0px;fill:#000000;fill-opacity:1;stroke:none;stroke-width:0.22752181"
         id="path4656"
         inkscape:connector-curvature="0" />
      <path
         d="m 1044.3352,144.59792 c 2.4765,0 4.2974,-1.31107 4.2974,-3.97692 v -6.07465 h -2.6512 v 6.04551 c 0,1.1217 -0.5245,1.76267 -1.6462,1.76267 -1.1217,0 -1.6461,-0.64097 -1.6461,-1.76267 v -6.04551 h -2.6513 v 6.07465 c 0,2.66585 1.821,3.97692 4.2974,3.97692 z"
         style="font-style:normal;font-variant:normal;font-weight:normal;font-stretch:normal;font-size:medium;line-height:1.25;font-family:'Neutra Display';-inkscape-font-specification:'Neutra Display';letter-spacing:0px;word-spacing:0px;fill:#000000;fill-opacity:1;stroke:none;stroke-width:0.22752181"
         id="path4658"
         inkscape:connector-curvature="0" />
      <path
         d="m 1050.2403,144.45225 h 4.2246 c 2.4619,0 3.9332,-1.078 3.9332,-2.97177 0,-1.51502 -0.9178,-2.2871 -1.9958,-2.59301 0.641,-0.30592 1.1363,-0.81578 1.1363,-1.92291 0,-1.51502 -1.2819,-2.41821 -3.2485,-2.41821 h -4.0498 z m 2.5639,-6.24946 v -1.55872 h 1.3111 c 0.5827,0 0.8157,0.33506 0.8157,0.80122 0,0.46615 -0.2622,0.7575 -0.8449,0.7575 z m 0,4.15174 v -2.22883 h 1.6024 c 1.0052,0 1.3402,0.42246 1.3402,1.10713 0,0.68467 -0.3205,1.1217 -1.3402,1.1217 z"
         style="font-style:normal;font-variant:normal;font-weight:normal;font-stretch:normal;font-size:medium;line-height:1.25;font-family:'Neutra Display';-inkscape-font-specification:'Neutra Display';letter-spacing:0px;word-spacing:0px;fill:#000000;fill-opacity:1;stroke:none;stroke-width:0.22752181"
         id="path4660"
         inkscape:connector-curvature="0" />
      <path
         d="m 1059.5441,144.45225 h 7.1527 v -2.22883 h -4.5014 v -1.03429 h 3.5836 v -2.11229 h -3.5836 v -2.30166 h 4.2974 v -2.22883 h -6.9487 z"
         style="font-style:normal;font-variant:normal;font-weight:normal;font-stretch:normal;font-size:medium;line-height:1.25;font-family:'Neutra Display';-inkscape-font-specification:'Neutra Display';letter-spacing:0px;word-spacing:0px;fill:#000000;fill-opacity:1;stroke:none;stroke-width:0.22752181"
         id="path4662"
         inkscape:connector-curvature="0" />
    </g>
  </g>
</svg>
