<?xml version="1.0" encoding="UTF-8" standalone="no"?>
<!-- Created with Inkscape (http://www.inkscape.org/) -->

<svg
   xmlns:dc="http://purl.org/dc/elements/1.1/"
   xmlns:cc="http://creativecommons.org/ns#"
   xmlns:rdf="http://www.w3.org/1999/02/22-rdf-syntax-ns#"
   xmlns:svg="http://www.w3.org/2000/svg"
   xmlns="http://www.w3.org/2000/svg"
   xmlns:sodipodi="http://sodipodi.sourceforge.net/DTD/sodipodi-0.dtd"
   xmlns:inkscape="http://www.inkscape.org/namespaces/inkscape"
   id="svg2985"
   version="1.1"
   inkscape:version="0.48.1 "
   width="489"
   height="575"
   sodipodi:docname="dumont01.png">
  <metadata
     id="metadata2991">
    <rdf:RDF>
      <cc:Work
         rdf:about="">
        <dc:format>image/svg+xml</dc:format>
        <dc:type
           rdf:resource="http://purl.org/dc/dcmitype/StillImage" />
        <dc:title></dc:title>
      </cc:Work>
    </rdf:RDF>
  </metadata>
  <defs
     id="defs2989" />
  <sodipodi:namedview
     pagecolor="#ffffff"
     bordercolor="#666666"
     borderopacity="1"
     objecttolerance="10"
     gridtolerance="10"
     guidetolerance="10"
     inkscape:pageopacity="0"
     inkscape:pageshadow="2"
     inkscape:window-width="1680"
     inkscape:window-height="988"
     id="namedview2987"
     showgrid="false"
     inkscape:zoom="0.90121487"
     inkscape:cx="197.90103"
     inkscape:cy="249.42749"
     inkscape:window-x="-8"
     inkscape:window-y="-8"
     inkscape:window-maximized="1"
     inkscape:current-layer="svg2985" />
  <path
     style="fill:#000000"
     d="m 322.175,574.48495 c -9.18857,-2.11291 -9.5,-2.28818 -9.5,-5.34664 0,-2.08521 0.48813,-2.96146 1.64974,-2.96146 1.46016,0 1.57508,-1.05191 1,-9.15362 -0.35736,-5.0345 -0.64974,-17.33641 -0.64974,-27.33758 l 0,-18.18396 -5.75,-1.86781 c -7.31253,-2.37538 -8.27645,-3.20306 -5.83182,-5.00756 1.61156,-1.18957 1.73854,-1.8101 0.79445,-3.88216 -1.38135,-3.03174 -7.62873,-4.94515 -12.97744,-3.97464 -4.07084,0.73864 -10.73722,3.79259 -11.7082,5.36367 -1.59924,2.58762 2.81924,7.18195 12.23562,12.72259 20.48166,12.05149 25.22805,21.93196 15.14392,31.52478 -7.78236,7.40317 -24.23468,9.93512 -33.45914,5.14922 -5.25044,-2.72406 -7.64974,-7.01342 -7.59883,-13.58488 0.0222,-2.87025 -0.46083,-5.52843 -1.07347,-5.90706 -0.75763,-0.46824 -0.81983,-1.60854 -0.19449,-3.56526 l 0.91941,-2.87684 8.77279,2.04056 c 8.77205,2.04038 8.77266,2.04074 7.1933,4.29055 -0.90448,1.28843 -2.62367,2.25 -4.02279,2.25 -2.12762,0 -2.4433,0.45411 -2.4433,3.5147 0,2.87849 0.58829,3.88544 3.25,5.56288 2.68553,1.69244 4.46578,1.97842 10.25,1.64655 3.8512,-0.22097 8.46194,-1.16046 10.25,-2.08856 2.72373,-1.41377 3.25,-2.25214 3.25,-5.17738 0,-4.49034 -4.21059,-8.52725 -16.5,-15.81939 -13.80187,-8.18959 -18.21053,-15.51944 -14.09747,-23.43846 2.663,-5.12717 10.83591,-9.63247 19.57754,-10.79208 11.20089,-1.48585 20.995,4.03103 22.74146,12.80993 l 0.85181,4.28181 6.71333,-0.35264 c 6.35367,-0.33375 6.71332,-0.23498 6.71332,1.84362 0,1.35526 -0.76585,2.39653 -2,2.71927 -1.1,0.28766 -2,1.35194 -2,2.36508 0,1.63043 0.55232,1.49872 4.80754,-1.14647 16.71507,-10.39066 43.19246,-0.70569 43.19246,15.79904 0,6.0545 -2.0382,10.29299 -6.98647,14.52852 -5.4388,4.65541 -11.65227,6.74358 -20.06594,6.74358 -7.25071,0 -13.33812,-1.71776 -18.09765,-5.10685 l -3.01792,-2.14895 0.72001,12.8779 c 0.39601,7.08284 1.1088,13.0279 1.58399,13.21123 0.47519,0.18334 0.86398,2.32084 0.86398,4.75 0,4.5002 -0.2452,4.70316 -4.5,3.72477 z m 32.81379,-37.89935 c 2.56854,-0.87519 6.0237,-2.85574 7.67814,-4.40121 5.50256,-5.14017 3.09279,-11.00405 -6.15744,-14.98339 -10.91021,-4.69345 -28.95298,-0.8602 -31.59265,6.71196 -3.47698,9.97406 15.0626,17.78684 30.07195,12.67264 z m -235.08446,19.58964 c -14.2725,-8.70198 -16.43729,-44.80051 -3.54255,-59.07344 10.8293,-11.98674 25.07023,-3.83438 29.36029,16.80761 0.59812,2.87791 1.50722,5.49197 2.02022,5.80902 0.513,0.31705 0.93272,1.66632 0.93272,2.99838 0,1.68698 -0.68278,2.58374 -2.25,2.95515 -3.44018,0.81527 -12.23447,2.36126 -12.35729,2.17234 -0.0599,-0.0921 0.1015,-1.85495 0.35862,-3.91745 0.28815,-2.31142 1.00094,-3.75 1.85808,-3.75 1.80455,0 1.76241,-0.62716 -0.53896,-8.02146 -3.17449,-10.19966 -8.23676,-13.62377 -12.86234,-8.70007 -3.95355,4.20837 -5.56275,10.42512 -5.62258,21.72153 -0.047,8.874 0.29641,11.26863 2.21762,15.46346 2.86646,6.25871 4.92023,8.53654 7.69685,8.53654 2.68372,0 5.87634,-3.22366 4.52799,-4.57201 -1.88687,-1.88687 0.42306,-3.51162 3.53843,-2.48886 1.61347,0.52969 4.84662,1.45257 7.18478,2.05084 l 4.2512,1.08777 -2.2015,2.97769 c -1.21083,1.63774 -2.6693,2.82177 -3.24105,2.63119 -0.57174,-0.19058 -1.87134,0.71095 -2.88799,2.00341 -4.24912,5.40188 -12.56279,6.89325 -18.44254,3.30836 z m 98.77068,0.0904 c 0,-1.05886 -0.27314,-2.637 -0.60699,-3.50698 -0.38156,-0.99434 -0.0683,-1.58179 0.84344,-1.58179 1.1782,0 1.57304,-2.95615 2.10366,-15.75 0.92709,-22.35315 0.81449,-39.02768 -0.26617,-39.41667 -0.50934,-0.18333 -1.23312,-1.57083 -1.60841,-3.08333 -0.64578,-2.60262 -0.49645,-2.75 2.78649,-2.75 1.90786,0 5.55664,-0.28617 8.10841,-0.63592 4.2755,-0.58603 4.63957,-0.46755 4.63957,1.50978 0,1.18014 -0.9,2.91632 -2,3.85817 -1.1,0.94185 -2,2.37163 -2,3.1773 0,1.01784 0.83918,0.67971 2.75,-1.10808 6.48791,-6.07016 17.03903,-8.13518 22.68029,-4.43888 3.60955,2.36506 6.52045,8.98359 6.54775,14.88763 0.0121,2.6125 0.47196,4.75 1.02196,4.75 1.26562,0 1.32127,5.68341 0.0633,6.4609 -0.51521,0.31842 -4.07829,0.0601 -7.91796,-0.57398 -6.84012,-1.12962 -6.95942,-1.20077 -5.90275,-3.51992 0.59317,-1.30185 1.68125,-2.367 2.41797,-2.367 1.5985,0 1.81539,-5.61808 0.36423,-9.4349 -1.87311,-4.92667 -9.89836,-2.88989 -16.0014,4.06109 -5.10093,5.80964 -5.77357,8.53906 -6.56122,26.62381 l -0.72951,16.75 3.15274,0 c 2.92982,0 3.10691,0.19445 2.50458,2.75 -0.35648,1.5125 -0.92756,3.03005 -1.26905,3.37233 -0.34149,0.34229 -3.88339,0.90793 -7.87089,1.25699 -6.7092,0.5873 -7.25,0.49104 -7.25,-1.29055 z m 206.89787,-0.3621 c -9.44999,-6.32239 -14.3327,-26.77395 -10.38735,-43.50817 2.75947,-11.70438 8.68074,-19.41337 15.96033,-20.77903 5.90301,-1.10741 12.2253,2.7806 16.11606,9.91087 1.7558,3.2177 3.75182,8.6177 4.43561,12 l 1.24326,6.14964 1.71454,-10 c 2.5863,-15.08453 6.74537,-21.60751 14.73237,-23.10588 10.14219,-1.90269 16.88977,8.51315 18.8134,29.0411 l 0.73112,7.80216 -13.28338,-0.73883 -13.28337,-0.73884 0.656,7.05829 c 0.71671,7.71159 1.93661,11.73233 4.37812,14.43017 2.55879,2.82743 5.20611,2.16194 6.82644,-1.71605 1.83059,-4.38122 1.85501,-7.53212 0.0584,-7.53212 -0.85714,0 -1.56993,-1.43858 -1.85808,-3.75 -0.25712,-2.0625 -0.41885,-3.82123 -0.35941,-3.90829 0.0594,-0.0871 3.59558,0.53761 7.85808,1.38816 7.50105,1.49678 7.75,1.63839 7.75,4.4083 0,1.574 -0.43266,2.86183 -0.96146,2.86183 -0.5288,0 -1.47575,1.90997 -2.10434,4.24438 -1.67927,6.23633 -4.62047,11.50395 -7.46333,13.36666 -3.87036,2.53596 -11.76382,1.44054 -15.51474,-2.15307 -3.49198,-3.34552 -6.69041,-11.34577 -7.5875,-18.97862 -0.71524,-6.08559 -0.87381,-6.16506 -9.11863,-4.57007 l -4.25,0.82217 0,-3.86572 c -2e-5,-2.81992 0.41804,-3.86573 1.54529,-3.86573 2.91647,0 -0.58178,-12.28102 -4.76735,-16.73635 -4.23467,-4.50761 -7.91539,-2.58045 -11.98073,6.27289 -1.91037,4.16032 -2.28025,6.66247 -2.28587,15.46346 -0.006,9.67086 0.23,10.9738 2.99096,16.5 3.53229,7.07004 7.06533,9.10623 10.46387,6.0306 1.38338,-1.25194 1.71798,-2.20622 1.05407,-3.00619 -0.63622,-0.7666 -0.60019,-1.54448 0.10417,-2.24884 0.76912,-0.76912 2.97606,-0.53372 7.72302,0.82379 3.6554,1.04535 6.77359,1.90064 6.92931,1.90064 0.15571,0 -0.71498,1.35 -1.93488,3 -1.2199,1.65 -2.73863,3 -3.37495,3 -0.63633,0 -2.01314,0.94607 -3.05958,2.10238 -4.80943,5.31435 -12.79615,6.44673 -18.50947,2.62431 z m 50.9299,-40.33637 c 3.29719,-0.50544 3.32148,-0.54864 2.64327,-4.70022 -0.94676,-5.79554 -4.39449,-13.57876 -6.5185,-14.7155 -2.99771,-1.60432 -5.88856,1.8261 -8.02173,9.51899 -1.06195,3.82972 -1.93082,8.00086 -1.93082,9.26921 0,2.18946 0.2655,2.27654 5.25,1.72187 2.8875,-0.32132 6.7475,-0.81377 8.57778,-1.09435 z M 95.425007,554.4606 c -2.36988,-0.35901 -2.75,-0.87969 -2.75,-3.76684 0,-1.84263 0.5625,-3.60745 1.25,-3.92181 0.6875,-0.31436 -0.325,-0.24505 -2.25,0.15402 -9.14729,1.8963 -16.56811,-0.50059 -20.74661,-6.70107 -4.38203,-6.5025 -1.82956,-14.72987 5.85194,-18.86255 3.7636,-2.02482 5.31225,-2.28323 10.78455,-1.79948 l 6.38989,0.56486 -0.62392,-5.96934 c -1.22143,-11.68601 -5.31784,-16.52662 -10.14674,-11.9901 -3.10116,2.91339 -3.77,5.70707 -1.50796,6.29861 1.30486,0.34123 1.63724,1.15071 1.26724,3.08625 -0.49318,2.57991 -0.63971,2.6237 -8.77966,2.6237 l -8.27811,0 0.87083,-3.75 c 0.47896,-2.0625 0.88157,-4.07338 0.89469,-4.46862 0.0131,-0.39523 0.63456,-0.48426 1.38098,-0.19783 0.88826,0.34086 2.28687,-1.37954 4.04823,-4.97963 4.48553,-9.16809 12.50928,-12.15773 19.67297,-7.33012 7.767923,5.2348 9.916123,12.16113 9.932693,32.02542 0.0128,15.36123 0.68856,20.70078 2.61983,20.70078 0.75304,0 1.36916,0.61875 1.36916,1.375 0,0.75625 0.28125,2.78125 0.625,4.5 l 0.625,3.125 -4.875,-0.14983 c -2.68125,-0.0824 -6.112503,-0.3373 -7.625003,-0.56642 z m -3.97251,-17.84045 c 3.43513,-2.40607 2.83333,-5.29013 -1.47991,-7.09232 -6.50803,-2.71923 -15.41812,0.56538 -13.69743,5.04942 1.37345,3.57915 11.11248,4.89003 15.17734,2.0429 z M 401.42501,554.4606 c -2.36988,-0.35901 -2.75,-0.87969 -2.75,-3.76684 0,-1.84263 0.5625,-3.60745 1.25,-3.92181 0.6875,-0.31436 -0.325,-0.24505 -2.25,0.15402 -11.7078,2.42711 -21.11394,-2.51407 -22.63557,-11.89078 -0.77447,-4.77248 1.63622,-9.67328 6.32497,-12.85834 3.14178,-2.1342 4.76925,-2.49053 11.12273,-2.4353 l 7.44247,0.0647 -0.58704,-6.2865 c -1.02806,-11.00921 -5.36461,-15.85504 -10.15846,-11.35145 -3.22031,3.02532 -3.7705,5.70694 -1.30328,6.35214 1.54208,0.40326 1.81743,1.02327 1.2596,2.83625 -0.39264,1.27609 -0.82709,2.45177 -0.96544,2.61262 -0.13836,0.16085 -3.81043,0.16085 -8.16016,0 l -7.90861,-0.29245 0.82274,-4.14635 c 0.68556,-3.45498 1.14983,-4.06082 2.78439,-3.63337 1.40592,0.36766 1.96165,0.009 1.96165,-1.26579 0,-3.42442 4.85319,-10.15694 8.60514,-11.93736 7.4535,-3.53691 14.9241,-0.12302 19.65715,8.98287 1.78115,3.42673 2.1876,6.65136 2.836,22.5 0.41628,10.175 0.78946,19.2875 0.8293,20.25 0.0398,0.9625 0.69494,1.75 1.45579,1.75 1.44907,0 2.57981,2.93222 2.60298,6.75 0.0124,2.04031 -0.42904,2.23604 -4.73635,2.10017 -2.6125,-0.0824 -5.9875,-0.3373 -7.5,-0.56642 z m -3.97252,-17.84045 c 3.10813,-2.17702 2.80137,-5.0926 -0.72783,-6.91762 -3.71131,-1.91919 -7.34786,-1.93995 -10.97814,-0.0627 -3.03133,1.56757 -4.29261,3.60387 -3.229,5.21314 2.2472,3.40006 11.10699,4.44837 14.93497,1.76715 z m -206.22625,13.27151 c -4.66861,-4.87244 -6.37276,-9.56946 -7.47537,-20.60389 -1.28341,-12.8438 1.26911,-28.3782 5.89394,-35.87006 5.94665,-9.63307 17.92823,-9.24155 23.02678,0.75244 2.52552,4.95042 4.75764,14.64779 5.18054,22.5067 l 0.32288,6 -12.75,-0.3338 -12.75,-0.33381 0.0239,4.83381 c 0.0478,9.69597 3.34992,17.48509 7.68812,18.13522 1.45577,0.21817 2.46387,-0.65223 3.64968,-3.15113 1.9959,-4.20606 2.11709,-7.65029 0.26918,-7.65029 -1.11087,0 -3.2064,-6.78212 -2.35002,-7.60578 0.12055,-0.11595 3.70668,0.4851 7.96918,1.33565 7.077,1.41217 7.75,1.75428 7.75,3.93968 0,1.31627 -0.675,2.65224 -1.5,2.96882 -0.825,0.31659 -1.5,1.3473 -1.5,2.29048 0,3.6394 -3.33907,11.25637 -6.17975,14.09706 -2.52041,2.52041 -3.75124,2.97409 -8.06859,2.97409 -4.69464,0 -5.41676,-0.33633 -9.20043,-4.28519 z m 15.26552,-34.32242 c 3.12948,-0.47937 3.28078,-0.6883 2.67959,-3.70023 -3.79564,-19.01603 -10.81258,-21.44563 -15.12876,-5.23829 -0.73912,2.77537 -1.34918,6.29913 -1.35571,7.83057 -0.0118,2.76759 0.0199,2.78091 5.23813,2.20023 2.8875,-0.32132 6.74254,-0.81284 8.56675,-1.09228 z M -0.32499361,551.96359 c 0,-1.64367 2.34756001,-6.78674 3.09782001,-6.78674 0.51354,0 0.90218,-11.41564 0.90218,-26.5 0,-22.88889 -0.20441,-26.5 -1.5,-26.5 -1.08614,0 -1.5,-1.11615 -1.5,-4.04531 0,-4.56622 -1.41193001,-4.3424 12.4336506,-1.97098 3.26352,0.55896 6.08757,1.01629 6.27569,1.01629 0.18811,0 -0.3561,1.35 -1.20934,3 -0.929,1.79648 -2.34341,3 -3.52568,3 -1.82722,0 -1.97432,0.70786 -1.97432,9.5 l 0,9.5 15.25,-0.009 c 8.3875,-0.005 17.6125,-0.29246 20.5,-0.63929 l 5.25,-0.6306 0,-8.86071 c 0,-8.15635 -0.15693,-8.8604 -1.975,-8.8604 -1.6861,0 -1.88618,-0.47541 -1.36777,-3.25 0.33398,-1.7875 0.9006,-3.58037 1.25915,-3.98415 0.97494,-1.09793 18.08607,1.427 18.0683,2.66617 -0.0288,2.0086 -1.48419,3.36628 -3.98468,3.71716 l -2.5,0.35082 -0.26689,25.75 c -0.26429,25.49995 -0.24668,25.75 1.81336,25.75 1.74455,0 2.02968,0.52446 1.76688,3.25 l -0.31335,3.25 -7.51648,0.28786 -7.51647,0.28786 -1.12574,-2.98243 c -1.0212,-2.70546 -0.9268,-3.0108 1.01647,-3.28786 2.03194,-0.28971 2.15672,-0.91027 2.42395,-12.05543 l 0.28174,-11.75 -17.40674,0 c -9.5737,0 -18.81298,0.28125 -20.53173,0.625 l -3.125,0.625 0,10.875 c 0,9.96667 0.1566,10.875 1.875,10.875 1.30439,0 2.06731,0.96157 2.50694,3.15972 0.34757,1.73785 0.51099,3.28068 0.36316,3.42851 -0.51817,0.51817 -17.74510061,1.68168 -17.74510061,1.19851 z m 152.50000361,-1.49077 -3,-0.38395 0.3143,-31.45601 c 0.19778,-19.79349 -0.044,-31.45601 -0.65217,-31.45601 -0.89505,0 -3.16213,-5.15577 -3.16213,-7.19129 0,-0.49106 3.4875,-0.76141 7.75,-0.60077 l 7.75,0.29206 -0.31988,3 c -0.17593,1.65 -0.73843,3.15 -1.25,3.33333 -1.14931,0.41189 -1.25836,35.16667 -0.11034,35.16667 0.45087,0 3.36367,-8.00085 6.47288,-17.77967 4.18778,-13.17105 5.50708,-18.67921 5.08973,-21.25 l -0.56338,-3.47033 5.3405,0.2861 c 8.01901,0.4296 9.84049,1.01288 9.84049,3.15116 0,3.19583 -1.12392,5.06274 -3.04788,5.06274 -1.48787,0 -2.89493,3.2271 -7.457,17.10269 -3.09269,9.40648 -5.48179,17.22425 -5.3091,17.37282 0.17269,0.14858 1.73974,0.99492 3.48234,1.88078 3.8101,1.93686 7.89104,9.78542 8.91408,17.14371 0.38233,2.75 1.06577,5.2411 1.51876,5.53578 0.45298,0.29468 0.5542,1.56597 0.22493,2.8251 -0.55742,2.13159 -0.95097,2.24182 -5.7124,1.59988 -2.81255,-0.37918 -5.45123,-0.88953 -5.86373,-1.13411 -1.14876,-0.68112 -0.89121,-5.32665 0.29531,-5.32665 1.29656,0 0.24687,-6.39418 -1.67245,-10.18775 -1.07096,-2.11678 -2.33314,-2.83371 -5.94153,-3.37482 -2.79157,-0.41862 -4.9905,-0.27826 -5.62801,0.35925 -1.03065,1.03065 -0.62122,10.07305 0.76763,16.95332 0.71396,3.53688 0.41307,3.63179 -8.07095,2.54597 z M 385.57088,434.76595 c -17.81773,-21.69886 -32.66967,-39.48321 -33.0043,-39.52078 -0.33463,-0.0376 -0.90638,8.81918 -1.27054,19.68168 -0.36417,10.8625 -0.93828,23.26383 -1.27581,27.55852 -0.58041,7.38511 -0.49796,7.83878 1.52054,8.36663 1.61949,0.42351 2.13423,1.33186 2.13423,3.76625 l 0,3.20813 -11.25,-0.39368 c -6.1875,-0.21653 -11.75491,-0.55146 -12.37203,-0.74428 -0.81102,-0.25341 -0.8425,-1.76429 -0.11359,-5.4508 0.99937,-5.05434 1.0373,-5.0948 4.21734,-4.49822 l 3.2089,0.60199 0.62597,-11.83227 c 0.34428,-6.50775 1.16726,-25.65983 1.82885,-42.56017 0.91285,-23.31899 1.48627,-30.49271 2.37822,-29.75247 0.64643,0.53649 13.95556,16.45733 29.57583,35.37963 15.62028,18.92231 28.5317,33.84778 28.69202,33.16771 0.2563,-1.08717 -3.82163,-35.79611 -5.38301,-45.81697 -0.55772,-3.57941 -0.75865,-3.75 -4.41694,-3.75 -3.47257,0 -3.89659,-0.29114 -4.51327,-3.09884 -0.37434,-1.70436 -0.29759,-3.43848 0.17055,-3.85361 0.85172,-0.75526 22.88743,-4.05111 27.06979,-4.04879 1.63773,9.2e-4 2.05519,0.4271 1.59446,1.62775 -0.57244,1.49175 2.33,1.56497 35.03137,0.88372 l 35.65554,-0.74279 0,6.61628 0,6.61628 -17,0 -17,0 0,31.93358 0,31.93358 2.75,0.31642 c 2.52955,0.29105 2.73063,0.63192 2.50838,4.25223 -0.13289,2.16469 -0.74117,4.24454 -1.35172,4.62188 -1.32317,0.81776 -18.87654,3.30577 -19.42852,2.75379 -0.21078,-0.21079 -0.78647,-2.9546 -1.2793,-6.09736 l -0.89607,-5.71412 2.86266,0 2.86266,0 -0.26404,-31.75 -0.26405,-31.75 -12,0 -11.99999,0 -0.59981,-4.5 c -0.36983,-2.77466 -0.65739,-3.44563 -0.75,-1.75 -0.12864,2.35551 -0.58054,2.75 -3.15019,2.75 -2.44515,0 -2.99956,0.41614 -2.99763,2.25 10e-4,1.2375 2.45394,21.58487 5.4503,45.21637 2.99636,23.6315 5.31092,43.10336 5.14349,43.27079 -0.16742,0.16743 -14.88255,-17.4492 -32.70029,-39.14806 z m -218.6999,-7.72632 -20.68744,-42.13721 -0.66361,4.38721 c -1.05857,6.99829 -4.08384,61.98163 -3.44546,62.62001 0.31815,0.31815 2.21165,0.84593 4.20779,1.17283 3.23043,0.52905 3.84,1.13093 5.54605,5.47604 1.0542,2.68491 1.68448,5.11389 1.40064,5.39774 -0.50019,0.50019 -19.12257,-1.32159 -24.92211,-2.43807 -2.73063,-0.52567 -2.84473,-0.76011 -2.37937,-4.8888 0.26884,-2.38516 1.12343,-4.97128 1.89908,-5.74693 1.0913,-1.0913 2.18576,-14.10765 4.83886,-57.54844 1.88572,-30.876 3.7545,-55.80495 4.15283,-55.39767 0.39834,0.40728 11.81716,23.46551 25.37516,51.24051 13.55799,27.775 25.05171,50.9164 25.54159,51.42533 0.5297,0.55031 9.48321,-16.56905 22.09183,-42.24019 11.66063,-23.74103 21.3735,-42.99316 21.58416,-42.7825 0.21066,0.21065 2.82346,22.14374 5.80624,48.74018 2.98277,26.59645 5.67002,49.78572 5.97166,51.53171 l 0.54844,3.17453 5.62139,-0.58018 5.62139,-0.58017 -0.56847,4.23823 c -0.31265,2.33103 -0.86826,4.53857 -1.23469,4.90565 -0.36642,0.36707 -6.70425,0.82406 -14.08407,1.01552 l -13.41786,0.34812 0,-3.59812 c 0,-2.89498 0.3793,-3.59811 1.94098,-3.59811 1.06754,0 2.24511,-0.49208 2.61681,-1.09351 0.8103,-1.31108 -5.62224,-60.90649 -6.57405,-60.90649 -0.36444,0 -8.3805,15.75 -17.81345,35 -9.43296,19.25 -17.40644,35 -17.71885,35 -0.31241,0 -9.87737,-18.96175 -21.25547,-42.13722 z M 3.3269864,436.78971 c -0.35859,-11.51443 -0.65198,-33.46278 -0.65198,-48.7741 0,-25.84989 0.12502,-27.83811 1.75,-27.8297 0.9625,0.005 6.5892906,1.10682 12.5039806,2.44853 26.10366,5.92145 44.70778,17.61431 51.58621,32.4224 2.15425,4.63773 2.6047,7.04251 2.57723,13.75872 -0.029,7.09286 -0.4435,8.97195 -3.2255,14.623 -8.42333,17.11021 -34.89512,32.93852 -56.78994,33.95648 l -7.0980106,0.33001 -0.65199,-20.93534 z m 33.7272806,-1.41325 c 8.50291,-4.42891 16.80416,-11.88135 19.54786,-17.54908 2.6833,-5.54295 2.73545,-13.43144 0.12267,-18.55293 -2.78702,-5.463 -11.18442,-12.61087 -19.44248,-16.54943 -7.56274,-3.60694 -21.37073,-8.11809 -22.22709,-7.26172 -0.28244,0.28243 -0.19082,15.82443 0.20359,34.53776 l 0.71712,34.02424 7.09953,-2.53282 c 3.90475,-1.39305 10.19521,-4.14526 13.9788,-6.11602 z m 53.08203,18.97664 c -5.86431,-2.74327 -12.17215,-10.37383 -14.123,-17.08451 -1.39676,-4.80466 -1.55063,-9.86819 -1.10426,-36.33716 0.49912,-29.59656 0.44799,-30.75458 -1.3577,-30.75458 -1.55199,0 -1.87633,-0.76373 -1.87633,-4.41821 0,-2.43002 -0.28978,-5.17336 -0.64396,-6.09633 -0.59016,-1.53795 0.39121,-1.61893 11.75,-0.96958 6.81668,0.38968 12.69644,0.99553 13.06614,1.34632 0.3697,0.35079 0.98228,2.3253 1.36129,4.3878 0.66489,3.61819 0.58854,3.75048 -2.17218,3.76365 -1.57371,0.008 -3.80428,0.26682 -4.95683,0.57624 -2.05275,0.5511 -2.10985,1.21344 -2.79685,32.44541 -0.62835,28.56599 -0.52916,32.22519 0.9535,35.17376 2.39191,4.75682 5.33076,6.74315 10.01457,6.7687 2.954733,0.0161 4.655393,-0.59659 6.183393,-2.22776 4.20896,-4.49312 4.59571,-7.18243 5.02148,-34.918 l 0.40938,-26.66801 -2.34496,-0.33199 c -2.12697,-0.30114 -2.31205,-0.75034 -1.99084,-4.832 0.19478,-2.475 0.51723,-4.77018 0.71656,-5.10039 0.3637,-0.60252 20.16087,2.44157 20.79458,3.19745 0.1858,0.22162 0.83121,1.86544 1.43425,3.65294 l 1.09644,3.25 -3.44798,0 c -3.3776,0 -3.44956,0.0867 -3.5256,4.25 -0.0427,2.3375 -0.39133,15.30709 -0.77475,28.82131 l -0.69714,24.57131 -3.30782,6.71915 c -4.30483,8.74434 -8.79973,11.92274 -17.50924,12.38102 -4.454503,0.23438 -7.238973,-0.19443 -10.172143,-1.56654 z m 198.038713,-5.65285 c -17.65396,-3.87682 -30.24139,-12.28294 -37.00731,-24.71416 -3.2494,-5.97022 -4.44176,-16.61999 -2.61635,-23.36841 4.98371,-18.42451 26.57877,-27.59048 50.55565,-21.45822 22.34643,5.71525 36.21122,19.31683 37.34737,36.63835 0.59605,9.08724 -1.48042,15.62177 -6.93224,21.81537 -9.52152,10.81701 -24.40419,14.80775 -41.34712,11.08707 z m 26.03003,-14.9943 c 6.42481,-3.14336 9.55786,-7.12931 10.21978,-13.00186 0.68555,-6.08222 -1.18226,-10.74507 -6.74022,-16.82635 -8.70403,-9.5236 -20.69887,-14.23043 -34.42828,-13.50982 -18.75728,0.9845 -28.23146,12.77884 -21.3436,26.57045 8.19768,16.41426 35.271,25.09535 52.29232,16.76758 z M 362.175,335.07659 c 6.67793,-2.03201 22.76402,-4.91572 35.50001,-6.36397 12.47353,-1.41841 14.18432,-1.87432 22.49999,-5.99608 4.95,-2.45352 12.15,-6.97805 16,-10.05451 10.20808,-8.15709 25.53498,-23.49426 35.21157,-35.23518 7.63324,-9.26165 10.68483,-12.42834 8.6729,-9 -12.15392,20.71025 -43.37727,51.93812 -61.08771,61.09654 -6.06046,3.13399 -15.33857,4.68791 -30.99905,5.19179 -8.68874,0.27956 -18.72271,0.68064 -22.29771,0.89129 -5.01691,0.2956 -5.8155,0.17471 -3.5,-0.52988 z m -172.27748,-8.45644 c -4.11278,-2.88071 -2.16992,-6.45711 6.77749,-12.47595 1.925,-1.29493 9.35,-6.92629 16.5,-12.51413 12.91636,-10.09436 16.40541,-12.45322 18.41986,-12.45322 0.57824,0 2.41431,2.7 4.08014,6 1.66583,3.3 3.39387,6 3.84008,6 1.55085,0 5.01007,-4.52538 6.68853,-8.75 1.07867,-2.71496 2.31433,-4.25 3.42114,-4.25 0.95293,0 7.54156,4.09019 14.64142,9.08931 7.09986,4.99912 16.17016,10.88915 20.15622,13.08896 3.98607,2.1998 8.14857,5.1453 9.25,6.54554 2.2381,2.84528 2.62771,7.25109 0.80261,9.07619 -2.10057,2.10057 -9.93234,1.28349 -22.8,-2.37869 l -12.5,-3.55755 -20.29499,0.0978 -20.29498,0.0978 -12.50342,3.97034 c -6.87687,2.18364 -12.8315,3.9703 -13.2325,3.9703 -0.401,0 -1.72923,-0.70052 -2.9516,-1.5567 z M 103.67501,310.29542 C 81.995237,301.51785 59.118297,288.75574 46.348267,278.31517 36.326267,270.12135 20.820887,253.61082 16.809927,246.86198 8.8671264,233.49743 2.6750064,213.80103 2.6750064,201.90051 c 0,-23.7941 25.8166706,-48.36364 65.0000006,-61.86002 13.6665,-4.70732 22.53592,-6.69618 58.000003,-13.0058 80.4888,-14.32024 87.09647,-15.1103 126.5,-15.12526 30.29002,-0.0115 40.90268,0.91311 70.51381,6.14336 27.20781,4.80574 26.15716,4.86236 23.59425,-1.27153 -4.49969,-10.76928 -23.13117,-23.959987 -43.83484,-31.034186 -20.54747,-7.020825 -44.11687,-10.655401 -69.77322,-10.759548 -30.90721,-0.125462 -53.59767,6.521014 -78.75,23.067395 -5.0875,3.346799 -9.25,5.716629 -9.25,5.266299 0,-1.55391 8.44578,-12.679581 18.32861,-24.14437 5.45226,-6.325 10.97978,-13.091092 12.2834,-15.035759 1.30361,-1.944667 4.84241,-11.468199 7.864,-21.163403 7.0602,-22.653682 13.01664,-38.032403 15.65366,-40.415609 3.28677,-2.97041101 20.94576,-2.36896101 42.87033,1.460127 19.7822,3.454927 24.3376,3.769441 38.62775,2.666941 8.98515,-0.693214 10.95947,-0.530188 17.5,1.445032 9.01536,2.722611 19.72708,8.212275 23.11092,11.844135 3.23067,3.467476 4.74102,8.264 16.27904,51.698536 5.25971,19.8 10.50858,38.925 11.66416,42.5 3.60203,11.14351 3.03438,10.69261 25.31812,20.11064 12.98348,5.48734 27.17877,13.54752 38.19221,21.68578 22.78919,16.83982 62.54641,63.66604 71.77812,84.54057 1.34314,3.03708 2.74269,7.9162 3.1101,10.84249 0.76056,6.05752 -0.21233,5.68887 -3.11273,-1.17948 -1.04516,-2.475 -5.94999,-10.50053 -10.89963,-17.83451 -27.72874,-41.08621 -62.28715,-74.0366 -86.36644,-82.34774 -7.79492,-2.69047 -21.1153,-3.10976 -27.70163,-0.87198 -2.2,0.74748 -11.91487,4.86781 -21.58861,9.15629 -22.65588,10.04363 -39.27192,15.71533 -65.91138,22.49811 -35.16528,8.95359 -45.06759,10.51558 -70.5,11.12067 -33.47772,0.79651 -65.58369,-2.03758 -82.8977,-7.31764 -4.45627,-1.35897 -17.553,-7.21658 -29.103863,-13.01691 -26.33454,-13.22403 -27.26954,-13.34524 -42.92326,-5.56401 -29.38877,14.6087 -37.5998706,35.37597 -24.35853,61.60691 13.32168,26.3901 41.66508,53.92075 79.784053,77.49623 7.42462,4.59191 13.6868,8.5122 13.91597,8.71175 1.53912,1.34024 -3.83512,-0.2466 -11.91667,-3.5186 z"
     id="path2995"
     inkscape:connector-curvature="0" />
</svg>
