<?xml version="1.0" encoding="UTF-8"?>
<!DOCTYPE svg PUBLIC "-//W3C//DTD SVG 1.1//EN" "http://www.w3.org/Graphics/SVG/1.1/DTD/svg11.dtd">
<!-- Creator: CorelDRAW X7 -->
<svg xmlns="http://www.w3.org/2000/svg" xml:space="preserve" width="176.832mm" height="95.0966mm" version="1.1" style="shape-rendering:geometricPrecision; text-rendering:geometricPrecision; image-rendering:optimizeQuality; fill-rule:evenodd; clip-rule:evenodd"
viewBox="0 0 17999 9679"
 xmlns:xlink="http://www.w3.org/1999/xlink">
 <defs>
  <style type="text/css">
   <![CDATA[
    .str0 {stroke:#FEFEFE;stroke-width:7.75602}
    .fil0 {fill:#FEFEFE}
   ]]>
  </style>
 </defs>
 <g id="Layer_x0020_1">
  <metadata id="CorelCorpID_0Corel-Layer"/>
  <path class="fil0 str0" d="M5424 6365c0,16 -6,23 -23,23l-61 0c-17,0 -23,-7 -23,-23l0 -788c-6,26 -20,71 -31,95l-221 534c-6,16 -15,23 -31,23l-56 0c-16,0 -23,-7 -29,-23l-231 -548c-6,-13 -17,-46 -26,-79l0 786c0,16 -6,23 -21,23l-58 0c-17,0 -23,-7 -23,-23l0 -992c0,-16 6,-23 23,-23l58 0c11,0 17,4 20,12l288 675c16,37 26,72 28,78 1,-5 17,-47 29,-76l282 -677c3,-9 11,-12 22,-12l61 0c17,0 23,7 23,23l0 992z"/>
  <path class="fil0 str0" d="M6030 5649c-15,-49 -35,-168 -38,-185 -2,11 -20,124 -38,182l-114 360 301 0 -111 -357zm24 -276l306 992c4,16 -2,23 -19,23l-65 0c-16,0 -23,-7 -28,-23l-84 -271 -349 0 -83 271c-4,16 -11,23 -26,23l-61 0c-15,0 -21,-7 -17,-23l304 -992c5,-16 12,-23 29,-23l66 0c15,0 23,7 27,23z"/>
  <path class="fil0 str0" d="M6671 5443l0 431 215 0c164,0 223,-58 223,-148l0 -136c0,-89 -59,-147 -223,-147l-215 0zm0 522l0 400c0,16 -4,23 -21,23l-64 0c-16,0 -22,-7 -22,-23l0 -992c0,-16 6,-23 20,-23l302 0c254,0 332,101 332,223l0 171c0,94 -47,177 -189,207l198 414c6,14 -5,23 -21,23l-64 0c-17,0 -20,-9 -28,-23l-189 -400 -39 0 -215 0z"/>
  <path class="fil0 str0" d="M7603 6365c0,16 -5,23 -22,23l-64 0c-15,0 -21,-7 -21,-23l0 -992c0,-16 6,-23 21,-23l64 0c17,0 22,7 22,23l0 992z"/>
  <path class="fil0 str0" d="M8569 6365c0,16 -4,23 -21,23l-58 0c-11,0 -17,-3 -22,-10l-404 -718c-34,-58 -51,-95 -52,-99l0 804c0,16 -6,23 -21,23l-58 0c-17,0 -23,-7 -23,-23l0 -992c0,-16 6,-23 23,-23l58 0c10,0 15,3 18,9l414 728c12,22 45,92 45,92l0 -806c0,-16 7,-23 22,-23l58 0c17,0 21,7 21,23l0 992z"/>
  <path class="fil0 str0" d="M9481 5889c17,0 23,6 23,21l0 268c0,122 -70,222 -322,222 -252,0 -323,-100 -323,-222l0 -617c0,-123 71,-223 323,-223 252,0 322,100 322,223l0 73c0,15 -6,21 -22,21l-61 0c-16,0 -23,-6 -23,-21l0 -57c0,-88 -53,-146 -215,-146 -162,0 -215,58 -215,146l0 584c0,88 53,146 215,146 160,0 215,-56 215,-145l0 -180 -204 0c-15,0 -22,-8 -22,-23l0 -49c0,-15 7,-21 22,-21l287 0z"/>
  <path class="fil0 str0" d="M10092 5247c-5,7 -13,14 -29,14l-51 0c-13,0 -20,-6 -10,-21l102 -171c8,-12 14,-22 29,-22l67 0c17,0 20,11 12,23l-120 177zm-19 402c-15,-49 -35,-168 -38,-185 -1,11 -20,124 -38,182l-113 360 301 0 -112 -357zm25 -276l305 992c5,16 -1,23 -18,23l-66 0c-15,0 -23,-7 -27,-23l-84 -271 -350 0 -82 271c-5,16 -11,23 -26,23l-61 0c-16,0 -22,-7 -17,-23l304 -992c4,-16 12,-23 29,-23l65 0c16,0 23,7 28,23z"/>
  <path class="fil0 str0" d="M4929 3773l384 0 0 -504c0,-45 17,-64 61,-64l229 0c44,0 59,19 59,64l0 1313c0,45 -15,64 -59,64l-229 0c-44,0 -61,-19 -61,-64l0 -523 -384 0 0 523c0,45 -15,64 -59,64l-229 0c-44,0 -61,-19 -61,-64l0 -1313c0,-45 17,-64 61,-64l229 0c44,0 59,19 59,64l0 504z"/>
  <path class="fil0 str0" d="M6491 3989c-34,-129 -64,-424 -66,-443 -4,30 -38,320 -72,443l-32 114 199 0 -29 -114zm133 -720l384 1313c12,40 -2,64 -47,64l-235 0c-45,0 -64,-24 -74,-64l-55 -203 -352 0 -55 203c-11,40 -30,64 -74,64l-214 0c-45,0 -60,-24 -47,-64l383 -1313c13,-43 34,-64 79,-64l229 0c44,0 65,21 78,64z"/>
  <path class="fil0 str0" d="M8200 4300c0,183 -122,363 -521,363 -398,0 -521,-180 -521,-363l0 -750c0,-182 123,-362 521,-362 399,0 521,180 521,362l0 98c0,44 -14,63 -59,63l-218 0c-45,0 -62,-19 -62,-63l0 -36c0,-98 -74,-138 -178,-138 -103,0 -175,40 -175,138l0 627c0,97 72,138 175,138 104,0 178,-41 178,-138l0 -68c0,-44 17,-63 62,-63l218 0c45,0 59,19 59,63l0 129z"/>
  <path class="fil0 str0" d="M9565 4582c21,32 13,64 -32,64l-292 0c-45,0 -68,-32 -89,-64l-335 -519 -23 0 0 519c0,45 -15,64 -60,64l-229 0c-44,0 -61,-19 -61,-64l0 -1313c0,-45 17,-64 61,-64l229 0c45,0 60,19 60,64l0 540 21 0 324 -540c21,-34 55,-64 100,-64l243 0c45,0 51,30 30,64l-403 644 456 669z"/>
  <path class="fil0 str0" d="M9819 4646c-44,0 -61,-19 -61,-64l0 -1313c0,-45 17,-64 61,-64l725 0c44,0 63,15 63,59l0 166c0,44 -19,61 -63,61l-437 0 0 276 403 0c44,0 63,14 63,59l0 155c0,44 -19,61 -63,61l-403 0 0 318 458 0c44,0 63,15 63,59l0 165c0,45 -19,62 -63,62l-746 0z"/>
  <path class="fil0 str0" d="M11222 3491l0 337 169 0c104,0 193,-40 193,-138l0 -61c0,-98 -89,-138 -193,-138l-169 0zm487 570l208 521c14,38 -13,64 -60,64l-229 0c-40,0 -48,-34 -61,-64l-186 -468 -159 0 0 468c0,45 -15,64 -60,64l-229 0c-44,0 -61,-19 -61,-64l0 -1313c0,-45 17,-64 61,-64l458 0c398,0 538,180 538,362l0 185c0,120 -61,241 -220,309z"/>
  <path class="fil0 str0" d="M12851 3597c0,-97 -68,-133 -165,-133 -98,0 -168,36 -168,133l0 21c0,57 45,83 68,91l356 121c157,53 265,163 265,320l0 150c0,183 -129,363 -528,363 -398,0 -532,-180 -532,-363l0 -142c0,-44 17,-63 62,-63l220 0c45,0 60,19 60,63l0 96c0,97 82,133 186,133 104,0 189,-36 189,-133l0 -43c0,-76 -102,-112 -183,-141l-305 -115c-108,-40 -197,-159 -197,-282l0 -123c0,-182 110,-362 502,-362 392,0 511,180 511,362l0 79c0,44 -17,63 -61,63l-221 0c-44,0 -59,-19 -59,-63l0 -32z"/>
  <path class="fil0 str0" d="M13800 3491l0 379 169 0c104,0 193,-40 193,-137l0 -104c0,-98 -89,-138 -193,-138l-169 0zm0 665l0 426c0,45 -15,64 -59,64l-229 0c-45,0 -62,-19 -62,-64l0 -1313c0,-45 17,-64 62,-64l457 0c399,0 539,180 539,362l0 227c0,182 -140,362 -539,362l-169 0z"/>
  <path class="fil0 str0" d="M15171 3989c-34,-129 -64,-424 -66,-443 -4,30 -38,320 -72,443l-32 114 199 0 -29 -114zm133 -720l384 1313c12,40 -2,64 -47,64l-235 0c-45,0 -64,-24 -74,-64l-55 -203 -352 0 -55 203c-11,40 -30,64 -74,64l-214 0c-45,0 -60,-24 -47,-64l384 -1313c12,-43 34,-64 78,-64l229 0c44,0 66,21 78,64z"/>
  <path class="fil0 str0" d="M16881 4300c0,183 -123,363 -522,363 -398,0 -521,-180 -521,-363l0 -750c0,-182 123,-362 521,-362 399,0 522,180 522,362l0 98c0,44 -15,63 -60,63l-218 0c-44,0 -61,-19 -61,-63l0 -36c0,-98 -75,-138 -178,-138 -104,0 -176,40 -176,138l0 627c0,97 72,138 176,138 103,0 178,-41 178,-138l0 -68c0,-44 17,-63 61,-63l218 0c45,0 60,19 60,63l0 129z"/>
  <path class="fil0 str0" d="M17186 4646c-45,0 -62,-19 -62,-64l0 -1313c0,-45 17,-64 62,-64l724 0c45,0 64,15 64,59l0 166c0,44 -19,61 -64,61l-436 0 0 276 402 0c45,0 64,14 64,59l0 155c0,44 -19,61 -64,61l-402 0 0 318 457 0c45,0 64,15 64,59l0 165c0,45 -19,62 -64,62l-745 0z"/>
  <path class="fil0 str0" d="M3625 997l-459 0c-97,0 -254,-80 -254,-177l0 8031c0,-96 150,-174 248,-177l465 0c194,0 354,-160 354,-354l0 -6969c0,-195 -160,-354 -354,-354z"/>
  <path class="fil0 str0" d="M2347 4l-712 0c-195,0 -177,159 -177,354 0,0 0,4019 0,4111 0,97 80,177 177,177 98,0 615,0 712,0 98,0 177,-80 177,-177 0,-92 0,-4111 0,-4111 0,-195 18,-354 -177,-354z"/>
  <path class="fil0 str0" d="M2524 5211c0,-98 -79,-177 -177,-177 -97,0 -614,0 -712,0 -97,0 -177,79 -177,177 0,97 0,4110 0,4110 0,195 -18,355 177,355l712 0c195,0 177,-160 177,-355 0,0 0,-4013 0,-4110z"/>
  <path class="fil0 str0" d="M1070 820c0,97 -156,177 -254,177l-458 0c-195,0 -354,159 -354,354l0 6969c0,194 159,354 354,354l465 0c98,3 247,81 247,177l0 -7854c0,-58 0,-177 0,-177z"/>
 </g>
</svg>
