<?xml version="1.0" encoding="UTF-8" standalone="no"?>
<!-- Created with Inkscape (http://www.inkscape.org/) -->

<svg
   xmlns:dc="http://purl.org/dc/elements/1.1/"
   xmlns:cc="http://creativecommons.org/ns#"
   xmlns:rdf="http://www.w3.org/1999/02/22-rdf-syntax-ns#"
   xmlns:svg="http://www.w3.org/2000/svg"
   xmlns="http://www.w3.org/2000/svg"
   xmlns:xlink="http://www.w3.org/1999/xlink"
   xmlns:sodipodi="http://sodipodi.sourceforge.net/DTD/sodipodi-0.dtd"
   xmlns:inkscape="http://www.inkscape.org/namespaces/inkscape"
   width="400"
   height="400"
   id="svg2"
   version="1.1"
   inkscape:version="0.48.3.1 r9886"
   sodipodi:docname="RaulHackerClub.svg"
   inkscape:export-filename="/tmp/raul-hacker-club.png"
   inkscape:export-xdpi="86.619919"
   inkscape:export-ydpi="86.619919">
  <defs
     id="defs4">
    <linearGradient
       id="linearGradient3035">
      <stop
         style="stop-color:#000000;stop-opacity:1;"
         offset="0"
         id="stop3037" />
      <stop
         style="stop-color:#000000;stop-opacity:0;"
         offset="1"
         id="stop3039" />
    </linearGradient>
    <linearGradient
       id="linearGradient3019">
      <stop
         style="stop-color:#b3b3b3;stop-opacity:1;"
         offset="0"
         id="stop3021" />
      <stop
         style="stop-color:#000000;stop-opacity:1;"
         offset="1"
         id="stop3023" />
    </linearGradient>
    <path
       sodipodi:type="arc"
       style="opacity:0.2;fill:#ff00ff;stroke:none"
       id="path3078"
       sodipodi:cx="199"
       sodipodi:cy="204"
       sodipodi:rx="111"
       sodipodi:ry="111"
       d="m 310,204 a 111,111 0 1 1 -222,0 111,111 0 1 1 222,0 z"
       transform="matrix(0,1,-1,0,843.04687,424.70313)" />
    <path
       sodipodi:type="arc"
       style="opacity:0.2;fill:#ff00ff;stroke:none"
       id="path3078-9"
       sodipodi:cx="199"
       sodipodi:cy="204"
       sodipodi:rx="111"
       sodipodi:ry="111"
       d="m 310,204 a 111,111 0 1 1 -222,0 111,111 0 1 1 222,0 z"
       transform="matrix(0,1,-1,0,843.04687,424.70313)" />
    <path
       sodipodi:type="arc"
       style="opacity:0.2;fill:#ff00ff;stroke:none"
       id="path3078-9-1"
       sodipodi:cx="199"
       sodipodi:cy="204"
       sodipodi:rx="111"
       sodipodi:ry="111"
       d="m 310,204 a 111,111 0 1 1 -222,0 111,111 0 1 1 222,0 z"
       transform="matrix(0,1,-1,0,843.04687,424.70313)" />
    <path
       sodipodi:type="arc"
       style="opacity:0.2;fill:#ff00ff;stroke:none"
       id="path3108-9"
       sodipodi:cx="199"
       sodipodi:cy="204"
       sodipodi:rx="111"
       sodipodi:ry="111"
       d="m 310,204 a 111,111 0 1 1 -222,0 111,111 0 1 1 222,0 z"
       transform="matrix(0,1,-1,0,835.21875,425.21875)" />
  </defs>
  <sodipodi:namedview
     id="base"
     pagecolor="#ffffff"
     bordercolor="#666666"
     borderopacity="1.0"
     inkscape:pageopacity="0.0"
     inkscape:pageshadow="2"
     inkscape:zoom="1"
     inkscape:cx="334.28809"
     inkscape:cy="187.54447"
     inkscape:document-units="px"
     inkscape:current-layer="g3040"
     showgrid="false"
     inkscape:window-width="1440"
     inkscape:window-height="841"
     inkscape:window-x="0"
     inkscape:window-y="27"
     inkscape:window-maximized="1"
     fit-margin-top="0"
     fit-margin-left="0"
     fit-margin-right="0"
     fit-margin-bottom="0" />
  <metadata
     id="metadata7">
    <rdf:RDF>
      <cc:Work
         rdf:about="">
        <dc:format>image/svg+xml</dc:format>
        <dc:type
           rdf:resource="http://purl.org/dc/dcmitype/StillImage" />
        <dc:title></dc:title>
      </cc:Work>
    </rdf:RDF>
  </metadata>
  <g
     inkscape:label="Layer 1"
     inkscape:groupmode="layer"
     id="layer1">
    <path
       d="m 160,369.36218 a 70,70 0 1 1 -140,0 70,70 0 1 1 140,0 z"
       sodipodi:ry="70"
       sodipodi:rx="70"
       sodipodi:cy="369.36218"
       sodipodi:cx="90"
       id="path3915"
       style="fill:none;stroke:#000000;stroke-width:3.2391305;stroke-linecap:round;stroke-linejoin:round;stroke-miterlimit:4;stroke-opacity:1;stroke-dasharray:none"
       sodipodi:type="arc"
       transform="matrix(-0.13341757,-2.2937335,-2.2937335,0.13341757,1736.726,391.86291)" />
    <g
       id="g3040"
       transform="translate(-27.828125,-259.48438)">
      <g
         id="g4181"
         transform="translate(17.180407,-1.4064995)">
        <path
           inkscape:connector-curvature="0"
           id="path3549"
           d="m 210.66357,288.19984 c -95.37522,0 -172.706886,77.29996 -172.706886,172.67518 0,95.37521 77.331666,172.70689 172.706886,172.70689 95.37521,0 172.67518,-77.33168 172.67518,-172.70689 0,-95.37522 -77.29997,-172.67518 -172.67518,-172.67518 z m -0.0317,64.61844 c 59.69073,0 108.08844,48.39771 108.08844,108.08845 0,59.69073 -48.39771,108.05674 -108.08844,108.05674 -59.69074,0 -108.05673,-48.36601 -108.05673,-108.05674 0,-59.69074 48.36599,-108.08845 108.05673,-108.08845 z"
           style="fill:#000000;fill-opacity:1;stroke:#000000;stroke-width:4.61793232;stroke-linecap:round;stroke-linejoin:round;stroke-miterlimit:4;stroke-opacity:1;stroke-dasharray:none" />
        <g
           id="g4007"
           transform="translate(3.78125,2)">
          <g
             id="g3236"
             transform="translate(-0.38042606,0)"
             style="fill:#000000">
            <g
               transform="translate(-250.40252,25.2334)"
               id="g3499"
               style="fill:#000000">
              <text
                 inkscape:export-ydpi="90"
                 inkscape:export-xdpi="90"
                 inkscape:export-filename="/home/tutz/raul-hacker-club.png"
                 transform="scale(1.0625746,0.94111039)"
                 xml:space="preserve"
                 style="font-size:33.87997437px;font-style:normal;font-variant:normal;font-weight:bold;font-stretch:normal;line-height:125%;letter-spacing:0px;word-spacing:0px;fill:#000000;fill-opacity:1;stroke:none;font-family:Dingbats;-inkscape-font-specification:Dingbats Bold"
                 x="394.56055"
                 y="531.93793"
                 id="text3501"
                 sodipodi:linespacing="125%"><tspan
                   sodipodi:role="line"
                   id="tspan3503"
                   x="394.56055"
                   y="531.93793"
                   style="font-style:normal;font-variant:normal;font-weight:bold;font-stretch:normal;fill:#000000;font-family:Dingbats;-inkscape-font-specification:Dingbats Bold">1</tspan></text>
              <text
                 inkscape:export-ydpi="90"
                 inkscape:export-xdpi="90"
                 inkscape:export-filename="/home/tutz/raul-hacker-club.png"
                 xml:space="preserve"
                 style="font-size:36px;font-style:normal;font-variant:normal;font-weight:bold;font-stretch:normal;line-height:125%;letter-spacing:0px;word-spacing:0px;fill:#000000;fill-opacity:1;stroke:none;font-family:Dingbats;-inkscape-font-specification:Dingbats Bold"
                 x="394.25"
                 y="498.48718"
                 id="text3509"
                 sodipodi:linespacing="125%"><tspan
                   sodipodi:role="line"
                   id="tspan3511"
                   x="394.25"
                   y="498.48718"
                   style="font-style:normal;font-variant:normal;font-weight:bold;font-stretch:normal;fill:#000000;font-family:Dingbats;-inkscape-font-specification:Dingbats Bold">0</tspan></text>
              <g
                 id="g3043"
                 style="fill:#000000">
                <text
                   xml:space="preserve"
                   style="font-size:36px;font-style:normal;font-variant:normal;font-weight:bold;font-stretch:normal;line-height:125%;letter-spacing:0px;word-spacing:0px;fill:#000000;fill-opacity:1;stroke:none;font-family:Dingbats;-inkscape-font-specification:Dingbats Bold"
                   x="-472.13086"
                   y="-503.11804"
                   id="text3505"
                   sodipodi:linespacing="125%"
                   transform="scale(-1,-1)"
                   inkscape:export-filename="/home/tutz/raul-hacker-club.png"
                   inkscape:export-xdpi="90"
                   inkscape:export-ydpi="90"><tspan
                     sodipodi:role="line"
                     id="tspan3507"
                     x="-472.13086"
                     y="-503.11804"
                     style="font-style:normal;font-variant:normal;font-weight:bold;font-stretch:normal;fill:#000000;font-family:Dingbats;-inkscape-font-specification:Dingbats Bold">1</tspan></text>
                <text
                   sodipodi:linespacing="125%"
                   id="text3513"
                   y="570.20319"
                   x="393.80634"
                   style="font-size:31.78705788px;font-style:normal;font-variant:normal;font-weight:bold;font-stretch:normal;line-height:125%;letter-spacing:0px;word-spacing:0px;fill:#000000;fill-opacity:1;stroke:none;font-family:Dingbats;-inkscape-font-specification:Dingbats Bold"
                   xml:space="preserve"
                   transform="scale(1.1325364,0.88297383)"
                   inkscape:export-filename="/home/tutz/raul-hacker-club.png"
                   inkscape:export-xdpi="90"
                   inkscape:export-ydpi="90"><tspan
                     style="font-style:normal;font-variant:normal;font-weight:bold;font-stretch:normal;fill:#000000;font-family:Dingbats;-inkscape-font-specification:Dingbats Bold"
                     y="570.20319"
                     x="393.80634"
                     id="tspan3515"
                     sodipodi:role="line">0</tspan></text>
              </g>
              <text
                 inkscape:export-ydpi="90"
                 inkscape:export-xdpi="90"
                 inkscape:export-filename="/home/tutz/raul-hacker-club.png"
                 transform="scale(1.0388818,0.96257342)"
                 sodipodi:linespacing="125%"
                 id="text3517"
                 y="548.42517"
                 x="404.52148"
                 style="font-size:34.65264511px;font-style:normal;font-variant:normal;font-weight:bold;font-stretch:normal;line-height:125%;letter-spacing:0px;word-spacing:0px;fill:#000000;fill-opacity:1;stroke:none;font-family:Dingbats;-inkscape-font-specification:Dingbats Bold"
                 xml:space="preserve"><tspan
                   style="font-style:normal;font-variant:normal;font-weight:bold;font-stretch:normal;fill:#000000;font-family:Dingbats;-inkscape-font-specification:Dingbats Bold"
                   y="548.42517"
                   x="404.52148"
                   id="tspan3519"
                   sodipodi:role="line">0</tspan></text>
              <text
                 sodipodi:linespacing="125%"
                 id="text3525"
                 y="531.93793"
                 x="443.26294"
                 style="font-size:33.87997437px;font-style:normal;font-variant:normal;font-weight:bold;font-stretch:normal;line-height:125%;letter-spacing:0px;word-spacing:0px;fill:#000000;fill-opacity:1;stroke:none;font-family:Dingbats;-inkscape-font-specification:Dingbats Bold"
                 xml:space="preserve"
                 transform="scale(1.0625746,0.94111039)"
                 inkscape:export-filename="/home/tutz/raul-hacker-club.png"
                 inkscape:export-xdpi="90"
                 inkscape:export-ydpi="90"><tspan
                   style="font-style:normal;font-variant:normal;font-weight:bold;font-stretch:normal;fill:#000000;font-family:Dingbats;-inkscape-font-specification:Dingbats Bold"
                   y="531.93793"
                   x="443.26294"
                   id="tspan3527"
                   sodipodi:role="line">1</tspan></text>
              <text
                 xml:space="preserve"
                 style="font-size:34.65264511px;font-style:normal;font-variant:normal;font-weight:bold;font-stretch:normal;line-height:125%;letter-spacing:0px;word-spacing:0px;fill:#000000;fill-opacity:1;stroke:none;font-family:Dingbats;-inkscape-font-specification:Dingbats Bold"
                 x="453.3721"
                 y="548.42517"
                 id="text3529"
                 sodipodi:linespacing="125%"
                 transform="scale(1.0388818,0.96257342)"
                 inkscape:export-filename="/home/tutz/raul-hacker-club.png"
                 inkscape:export-xdpi="90"
                 inkscape:export-ydpi="90"><tspan
                   sodipodi:role="line"
                   id="tspan3531"
                   x="453.3721"
                   y="548.42517"
                   style="font-style:normal;font-variant:normal;font-weight:bold;font-stretch:normal;fill:#000000;font-family:Dingbats;-inkscape-font-specification:Dingbats Bold">0</tspan></text>
              <text
                 sodipodi:linespacing="125%"
                 id="text3164"
                 y="498.48718"
                 x="496"
                 style="font-size:36px;font-style:normal;font-variant:normal;font-weight:bold;font-stretch:normal;line-height:125%;letter-spacing:0px;word-spacing:0px;fill:#000000;fill-opacity:1;stroke:none;font-family:Dingbats;-inkscape-font-specification:Dingbats Bold"
                 xml:space="preserve"
                 inkscape:export-filename="/home/tutz/raul-hacker-club.png"
                 inkscape:export-xdpi="90"
                 inkscape:export-ydpi="90"><tspan
                   style="font-style:normal;font-variant:normal;font-weight:bold;font-stretch:normal;fill:#000000;font-family:Dingbats;-inkscape-font-specification:Dingbats Bold"
                   y="498.48718"
                   x="496"
                   id="tspan3166"
                   sodipodi:role="line">0</tspan></text>
            </g>
            <g
               id="g3489"
               transform="matrix(1.4110236,0,0,1.4110236,57.73136,-392.92028)"
               style="fill:#000000">
              <path
                 style="fill:#000000"
                 d="m 93.54336,615.07918 c -7.383903,-5.1308 -8.80742,-8.23187 -10.93132,-9.5523 -1.423828,-0.88519 -3.00482,-2.08441 -3.32816,-3 -0.32333,-0.91558 -1.18373,-2.36325 -1.91199,-3.21704 -0.72826,-0.85379 -1.46248,-2.45901 -1.63159,-3.56715 -0.16912,-1.10815 -1.30487,-3.28278 -2.52389,-4.83252 -1.45079,-1.84438 -2.22865,-4.23921 -2.25185,-6.93285 -0.0195,-2.26333 -0.67854,-5.24014 -1.46456,-6.61514 -1.99998,-3.4986 -1.8307,-5.94539 0.44451,-9.67678 1.61246,-2.64447 1.75049,-3.67101 0.82371,-6.12631 -0.84807,-2.2468 -0.80505,-3.69378 0.18055,-6.07323 0.71163,-1.71802 1.68928,-3.12368 2.17255,-3.12368 0.48327,0 0.87868,-0.92235 0.87868,-2.04966 0,-4.78432 4.89366,-7.95034 9.42573,-7.95034 0.7324,0 1.89961,-1.37122 2.5938,-3.04716 1.343,-3.24229 6.00751,-2.87158 8.7976,-2.3289 0.98305,0.19121 2.51457,1.1048 3.68287,-0.61251 3.96449,-5.82747 12.03558,-5.53404 14.71312,0.53492 1.08521,2.45974 1.70641,0.82497 3.96389,0.33053 3.9352,-0.86189 8.45279,-1.54264 9.95568,2.61354 0.78382,2.16759 1.92928,3.50958 2.99562,3.50958 2.27527,0 5.87169,2.65481 5.87169,5.59968 0,1.28147 0.85267,2.78629 1.89482,3.34403 2.62947,1.40725 4.26681,6.50097 3.08709,9.60388 -0.72023,1.89435 -0.47808,3.23059 1.03524,5.71258 2.23499,3.66564 2.50629,5.30775 0.851,9.42473 -0.62251,1.54831 -1.04282,4.65778 -0.93401,6.90995 0.15086,3.12257 -0.41144,4.81893 -2.36815,7.14436 -1.4113,1.67723 -2.56599,3.94194 -2.56599,5.0327 0,1.09076 -0.675,2.5434 -1.5,3.22809 -0.825,0.68469 -1.5,1.85442 -1.5,2.59939 0,1.6055 -4.54136,4.8021 -5.75587,4.05149 -0.46411,-0.28683 -1.33234,0.26071 -1.9294,1.21677 -0.93138,1.49138 -5.74562,6.94951 -11.07511,10.43293 -11.47466,7.49998 -8.23738,6.76849 -21.69626,-2.58358 z m 18.75468,1.87669 c 6.31333,-4.13406 9.59044,-7.08317 12.49906,-11.24806 1.95165,-2.7946 2.1967,-4.39136 2.14852,-14 l -0.0544,-10.84563 -6.97409,1 -0.22409,4.25 -5.83494,-3.43994 c -4.54643,-2.68032 -3.30558,5.89303 -5.53762,2 -2.74845,-4.79375 -3.45799,-3.17189 -5.81374,0.0195 -2.876865,3.89742 0.56045,-1.92843 -4.86631,-1.69785 -3.92904,0.16694 -2.644282,0.46259 -5,1.44223 -3.901815,1.6226 -2.14043,0.3321 -2.14043,-1.72979 0,-2.06189 -5.11944,-1.95449 -5.57098,-2.23356 -0.45154,-0.27906 -0.53903,5.65575 -0.5,11.35514 0.0674,9.84588 0.22065,10.57547 3.07303,14.63362 2.92155,4.15658 15.6928,13.84731 18.29599,13.88287 0.71392,0.01 3.63892,-1.51511 6.5,-3.38858 z M 121.5,579.38228 c 4.4,-0.40298 6.24516,-1.04736 5.32258,-1.12639 -0.92258,-0.079 -3.58525,-4.04783 -4.69482,-5.45842 -1.66835,-2.12096 -2.36162,-2.3805 -4.00684,-1.5 -3.49036,1.86798 -7.12415,1.21533 -10.16522,-1.82575 -2.51684,-2.51683 -2.96179,-2.66571 -3.4423,-1.15175 -1.26653,3.99048 -9.27499,5.28062 -12.53608,2.0195 -1.8913,-1.8913 -2.06337,-1.90754 -2.64901,-0.25 -0.34449,0.97497 -1.53772,2.78518 -2.65164,4.02268 l -2.0253,4 6.92432,0.86832 c 3.779328,0.47393 8.52431,-0.0247 10.17431,0.41172 1.65,0.43637 7.825,0.30251 9.75,0.008 1.925,-0.29443 5.6,0.38497 10,-0.018 z"
                 id="path3491"
                 inkscape:connector-curvature="0"
                 sodipodi:nodetypes="ssssssssssssssssssssssssssssssssssscscccsssssszsscssccsssscscssssscc" />
              <path
                 sodipodi:nodetypes="csssssssssssssssssssssssssssssssccc"
                 inkscape:connector-curvature="0"
                 id="path3493"
                 d="m 116.13942,595.47294 c 0.70001,0.34111 1.6608,1.41008 1.81098,1.83533 0.15017,0.42526 0.5498,1.09765 0.88805,1.4942 0.33825,0.39656 0.67926,1.14212 0.75781,1.65681 0.0785,0.5147 0.60606,1.52473 1.17225,2.24453 0.67384,0.85665 1.03513,1.96896 1.04591,3.22006 0.009,1.05123 0.31515,2.43385 0.68023,3.07249 0.92892,1.62497 0.85029,3.69034 -0.20646,5.42343 -0.74893,1.22826 -0.81304,1.70505 -0.38258,2.84545 0.3939,1.04356 0.37392,1.71563 -0.0839,2.82079 -0.33053,0.79796 -0.78461,1.45084 -1.00907,1.45084 -0.22446,0 -0.40812,0.4284 -0.40812,0.95199 0,2.22214 -2.27292,4.62157 -4.3779,4.62157 -0.34018,0 -0.8823,0.63688 -1.20473,1.4153 -0.62377,1.50592 -2.79027,2.921 -4.08616,2.66895 -0.45659,-0.0888 -1.16793,0.41578 -1.71056,1.21341 -1.84136,2.70665 -5.59009,2.57036 -6.8337,-0.24845 -0.50405,-1.14246 -0.79257,-1.31209 -1.84109,-1.08245 -1.827753,0.40032 -3.926009,-0.87076 -4.624046,-2.80115 -0.364056,-1.00677 -0.89608,-1.63007 -1.391356,-1.63007 -1.05678,0 -2.727185,-2.16199 -2.727185,-3.52978 0,-0.59519 -0.396034,-1.29413 -0.880075,-1.55318 -1.221293,-0.65361 -1.981777,-3.01946 -1.43384,-4.46065 0.33452,-0.87985 0.22205,-1.50049 -0.480831,-2.65328 -1.038072,-1.70256 -1.16408,-3.39418 -0.395259,-5.30637 0.289133,-0.71913 0.484352,-2.16337 0.433814,-3.20942 -0.07007,-1.45032 0.191099,-2.23822 1.099919,-3.31829 0.655497,-0.77902 1.191808,-1.83089 1.191808,-2.33751 0,-0.50662 0.313513,-1.18131 0.696695,-1.49933 0.383183,-0.31801 0.696696,-0.86131 0.696696,-1.20732 0,-0.7457 2.109295,-2.2304 2.673391,-1.88177 0.215562,0.13322 0.618823,-0.12109 0.896135,-0.56514 0.432592,-0.6927 6.650454,-1.27243 8.105894,-1.44241 1.5895,-0.13254 1.75737,-0.31246 3.73047,-0.13858 0.78677,0.28767 5.43355,0.707 8.19681,1.93 z"
                 style="fill:#000000" />
            </g>
          </g>
          <path
             sodipodi:nodetypes="ssssssssssccscs"
             inkscape:connector-curvature="0"
             id="path3495"
             d="m 188.32915,443.96861 c -0.28665,-0.0987 -1.1618,-0.32057 -1.94479,-0.49311 -2.3295,-0.5133 -4.94115,-3.22564 -6.10749,-6.34293 -1.24012,-3.31452 -1.40792,-8.28921 -0.36389,-10.78793 0.93069,-2.22745 3.99801,-4.86597 6.44758,-5.54622 2.83964,-0.78858 8.7487,-0.28212 12.30767,0.22924 6.62859,0.9524 9.65425,0.99845 17.80343,-0.0104 7.34545,-0.90935 13.33734,-0.60427 16.05725,2.9617 3.61533,4.73994 2.48608,13.8328 -2.2085,17.78302 -1.97406,1.66108 -6.0617,2.59997 -8.39992,1.92937 -5.3263,-1.52756 -11.51359,-9.24748 -12.39691,-15.4677 -1.95327,-3.82896 -4.35791,-3.79014 -5.19527,0.26391 -1.03628,5.01716 -6.19314,11.95157 -10.52702,14.15563 -1.92539,0.97919 -4.5977,1.62646 -5.47214,1.32544 z"
             style="fill:#000000;fill-opacity:1" />
        </g>
        <g
           id="g4003"
           transform="translate(2.3942479,21.362414)">
          <path
             inkscape:export-ydpi="90"
             inkscape:export-xdpi="90"
             inkscape:export-filename="/home/tutz/raul-hacker-club.png"
             sodipodi:type="arc"
             style="fill:#ffffff;stroke:none"
             id="path3553"
             sodipodi:cx="90"
             sodipodi:cy="369.36218"
             sodipodi:rx="70"
             sodipodi:ry="70"
             d="m 160,369.36218 c 0,38.65994 -31.34007,70 -70,70 -38.659932,0 -70,-31.34006 -70,-70 0,-38.65993 31.340068,-70 70,-70 38.65993,0 70,31.34007 70,70 z"
             transform="matrix(0.14285714,0,0,0.14285714,328.39634,346.76244)" />
          <path
             inkscape:export-ydpi="90"
             inkscape:export-xdpi="90"
             inkscape:export-filename="/home/tutz/raul-hacker-club.png"
             transform="matrix(0.14285714,0,0,0.14285714,62.396315,346.76244)"
             d="m 160,369.36218 c 0,38.65994 -31.34007,70 -70,70 -38.659932,0 -70,-31.34006 -70,-70 0,-38.65993 31.340068,-70 70,-70 38.65993,0 70,31.34007 70,70 z"
             sodipodi:ry="70"
             sodipodi:rx="70"
             sodipodi:cy="369.36218"
             sodipodi:cx="90"
             id="path3551"
             style="fill:#ffffff;stroke:none"
             sodipodi:type="arc" />
        </g>
        <g
           style="fill:#808000;stroke:none"
           id="g3188"
           transform="matrix(0.98583,0,0,0.98583,-244.15075,11.650375)" />
      </g>
      <text
         transform="translate(-649,222)"
         sodipodi:linespacing="125%"
         id="text3026"
         style="font-size:56px;font-style:normal;font-variant:normal;font-weight:bold;font-stretch:normal;text-align:center;line-height:125%;letter-spacing:6px;word-spacing:0px;writing-mode:lr-tb;text-anchor:middle;fill:#ffffff;fill-opacity:1;stroke:none;font-family:DejaVu Sans;-inkscape-font-specification:DejaVu Sans Bold"
         xml:space="preserve"><textPath
           id="textPath3034"
           startOffset="50%"
           xlink:href="#path3915">HackerClub</textPath></text>
      <text
         xml:space="preserve"
         style="font-size:60px;font-style:normal;font-variant:normal;font-weight:bold;font-stretch:normal;text-align:center;line-height:125%;letter-spacing:-2px;word-spacing:0px;writing-mode:lr-tb;text-anchor:middle;fill:#ffffff;fill-opacity:1;stroke:none;font-family:DejaVu Sans;-inkscape-font-specification:DejaVu Sans Bold"
         id="text3074"
         sodipodi:linespacing="125%"
         transform="translate(-412,-171)"><textPath
           xlink:href="#path3108"
           startOffset="50%"
           id="textPath3233">Raul</textPath></text>
      <path
         sodipodi:type="arc"
         style="opacity:0.2;fill:#008080;stroke:none"
         id="path3108"
         sodipodi:cx="199"
         sodipodi:cy="204"
         sodipodi:rx="111"
         sodipodi:ry="111"
         d="M 310,204 C 310,265.30361 260.30361,315 199,315 137.69639,315 88,265.30361 88,204 88,142.69639 137.69639,93 199,93 c 61.30361,0 111,49.69639 111,111 z"
         transform="matrix(0,1,-1,0,843.04687,424.70313)" />
    </g>
  </g>
</svg>
